<svg xmlns="http://www.w3.org/2000/svg" xmlns:xlink="http://www.w3.org/1999/xlink" width="500" zoomAndPan="magnify" viewBox="0 0 375 374.999991" height="500" preserveAspectRatio="xMidYMid meet" version="1.0"><path fill="#737373" d="M 187.046875 -0.421875 C 186.03125 -0.410156 185.019531 -0.34375 184.011719 -0.230469 C 183.003906 -0.117188 182.003906 0.046875 181.011719 0.257812 C 180.019531 0.472656 179.042969 0.730469 178.074219 1.039062 C 177.109375 1.347656 176.160156 1.703125 175.226562 2.105469 C 174.296875 2.507812 173.386719 2.953125 172.5 3.445312 C 171.609375 3.9375 170.75 4.46875 169.914062 5.046875 C 169.078125 5.621094 168.273438 6.234375 167.5 6.890625 C 166.722656 7.546875 165.980469 8.238281 165.273438 8.964844 C 164.566406 9.691406 163.898438 10.453125 163.265625 11.246094 C 162.632812 12.039062 162.042969 12.859375 161.488281 13.710938 C 160.9375 14.5625 160.429688 15.4375 159.964844 16.339844 C 159.496094 17.242188 159.078125 18.164062 158.703125 19.105469 C 158.328125 20.050781 158 21.007812 157.71875 21.984375 C 157.4375 22.957031 157.203125 23.945312 157.019531 24.941406 C 156.835938 25.9375 156.703125 26.941406 156.617188 27.953125 C 156.53125 28.964844 156.496094 29.976562 156.507812 30.992188 L 156.507812 154.957031 L 32.542969 154.957031 C 31.515625 154.945312 30.496094 154.980469 29.472656 155.066406 C 28.453125 155.152344 27.441406 155.292969 26.433594 155.480469 C 25.425781 155.667969 24.429688 155.902344 23.445312 156.1875 C 22.464844 156.476562 21.496094 156.808594 20.546875 157.191406 C 19.597656 157.574219 18.667969 158 17.757812 158.476562 C 16.851562 158.949219 15.96875 159.464844 15.113281 160.027344 C 14.253906 160.589844 13.429688 161.191406 12.632812 161.835938 C 11.835938 162.480469 11.070312 163.160156 10.34375 163.878906 C 9.613281 164.597656 8.921875 165.351562 8.265625 166.140625 C 7.609375 166.925781 6.996094 167.746094 6.421875 168.59375 C 5.851562 169.441406 5.320312 170.316406 4.832031 171.21875 C 4.347656 172.121094 3.90625 173.042969 3.511719 173.988281 C 3.113281 174.933594 2.765625 175.894531 2.46875 176.875 C 2.167969 177.855469 1.917969 178.84375 1.714844 179.851562 C 1.511719 180.855469 1.363281 181.867188 1.261719 182.886719 C 1.160156 183.90625 1.109375 184.925781 1.109375 185.949219 C 1.109375 186.976562 1.160156 187.996094 1.261719 189.015625 C 1.363281 190.035156 1.511719 191.046875 1.714844 192.050781 C 1.917969 193.054688 2.167969 194.046875 2.46875 195.027344 C 2.765625 196.003906 3.113281 196.96875 3.511719 197.914062 C 3.90625 198.859375 4.347656 199.78125 4.832031 200.683594 C 5.320312 201.582031 5.851562 202.457031 6.421875 203.304688 C 6.996094 204.15625 7.609375 204.972656 8.265625 205.761719 C 8.921875 206.546875 9.613281 207.300781 10.34375 208.019531 C 11.070312 208.742188 11.835938 209.421875 12.632812 210.066406 C 13.429688 210.707031 14.253906 211.3125 15.113281 211.871094 C 15.96875 212.433594 16.851562 212.953125 17.757812 213.425781 C 18.667969 213.898438 19.597656 214.328125 20.546875 214.710938 C 21.496094 215.09375 22.464844 215.425781 23.445312 215.710938 C 24.429688 215.996094 25.425781 216.234375 26.433594 216.421875 C 27.441406 216.609375 28.453125 216.746094 29.472656 216.832031 C 30.496094 216.921875 31.515625 216.957031 32.542969 216.941406 L 156.507812 216.941406 L 156.507812 340.910156 C 156.492188 341.933594 156.53125 342.957031 156.617188 343.976562 C 156.703125 344.996094 156.839844 346.011719 157.027344 347.015625 C 157.214844 348.023438 157.453125 349.019531 157.738281 350.003906 C 158.023438 350.988281 158.359375 351.953125 158.742188 352.902344 C 159.121094 353.855469 159.550781 354.785156 160.023438 355.691406 C 160.5 356.601562 161.015625 357.480469 161.578125 358.339844 C 162.140625 359.195312 162.742188 360.023438 163.386719 360.820312 C 164.027344 361.617188 164.710938 362.378906 165.429688 363.109375 C 166.148438 363.835938 166.902344 364.53125 167.6875 365.183594 C 168.476562 365.839844 169.296875 366.453125 170.144531 367.027344 C 170.992188 367.601562 171.867188 368.128906 172.769531 368.617188 C 173.667969 369.105469 174.59375 369.546875 175.539062 369.941406 C 176.484375 370.335938 177.445312 370.683594 178.425781 370.984375 C 179.402344 371.285156 180.394531 371.535156 181.398438 371.734375 C 182.402344 371.9375 183.414062 372.089844 184.433594 372.191406 C 185.453125 372.292969 186.476562 372.34375 187.5 372.34375 C 188.523438 372.34375 189.546875 372.292969 190.566406 372.191406 C 191.585938 372.089844 192.597656 371.9375 193.601562 371.734375 C 194.605469 371.535156 195.597656 371.285156 196.574219 370.984375 C 197.554688 370.683594 198.515625 370.335938 199.460938 369.941406 C 200.40625 369.546875 201.332031 369.105469 202.230469 368.617188 C 203.132812 368.128906 204.007812 367.601562 204.855469 367.027344 C 205.703125 366.453125 206.523438 365.839844 207.3125 365.183594 C 208.097656 364.53125 208.851562 363.835938 209.570312 363.109375 C 210.289062 362.378906 210.972656 361.617188 211.613281 360.820312 C 212.257812 360.023438 212.859375 359.195312 213.421875 358.339844 C 213.984375 357.480469 214.5 356.601562 214.976562 355.691406 C 215.449219 354.785156 215.878906 353.855469 216.257812 352.902344 C 216.640625 351.953125 216.976562 350.988281 217.261719 350.003906 C 217.546875 349.019531 217.785156 348.023438 217.972656 347.015625 C 218.160156 346.011719 218.296875 344.996094 218.382812 343.976562 C 218.46875 342.957031 218.507812 341.933594 218.492188 340.910156 L 218.492188 216.941406 L 342.457031 216.941406 C 343.484375 216.957031 344.503906 216.921875 345.527344 216.832031 C 346.546875 216.746094 347.558594 216.609375 348.566406 216.421875 C 349.574219 216.234375 350.570312 215.996094 351.554688 215.710938 C 352.535156 215.425781 353.503906 215.09375 354.453125 214.710938 C 355.402344 214.328125 356.332031 213.898438 357.242188 213.425781 C 358.148438 212.953125 359.03125 212.433594 359.886719 211.871094 C 360.746094 211.3125 361.570312 210.707031 362.367188 210.066406 C 363.164062 209.421875 363.929688 208.742188 364.65625 208.019531 C 365.386719 207.300781 366.078125 206.546875 366.734375 205.761719 C 367.386719 204.972656 368.003906 204.15625 368.578125 203.304688 C 369.148438 202.457031 369.679688 201.582031 370.167969 200.683594 C 370.652344 199.78125 371.09375 198.859375 371.488281 197.914062 C 371.886719 196.96875 372.234375 196.003906 372.53125 195.027344 C 372.832031 194.046875 373.082031 193.054688 373.285156 192.050781 C 373.488281 191.046875 373.636719 190.035156 373.738281 189.015625 C 373.839844 187.996094 373.890625 186.976562 373.890625 185.949219 C 373.890625 184.925781 373.839844 183.90625 373.738281 182.886719 C 373.636719 181.867188 373.488281 180.855469 373.285156 179.851562 C 373.082031 178.84375 372.832031 177.855469 372.53125 176.875 C 372.234375 175.894531 371.886719 174.933594 371.488281 173.988281 C 371.09375 173.042969 370.652344 172.121094 370.167969 171.21875 C 369.679688 170.316406 369.148438 169.441406 368.578125 168.59375 C 368.003906 167.746094 367.386719 166.925781 366.734375 166.140625 C 366.078125 165.351562 365.386719 164.597656 364.65625 163.878906 C 363.929688 163.160156 363.164062 162.480469 362.367188 161.835938 C 361.570312 161.191406 360.746094 160.589844 359.886719 160.027344 C 359.03125 159.464844 358.148438 158.949219 357.242188 158.476562 C 356.332031 158 355.402344 157.574219 354.453125 157.191406 C 353.503906 156.808594 352.535156 156.476562 351.554688 156.1875 C 350.570312 155.902344 349.574219 155.667969 348.566406 155.480469 C 347.558594 155.292969 346.546875 155.152344 345.527344 155.066406 C 344.503906 154.980469 343.484375 154.945312 342.457031 154.957031 L 218.492188 154.957031 L 218.492188 30.992188 C 218.503906 29.957031 218.46875 28.925781 218.378906 27.898438 C 218.289062 26.867188 218.148438 25.84375 217.957031 24.828125 C 217.765625 23.8125 217.527344 22.808594 217.234375 21.820312 C 216.941406 20.828125 216.601562 19.851562 216.210938 18.894531 C 215.824219 17.9375 215.386719 17.003906 214.90625 16.089844 C 214.421875 15.175781 213.894531 14.289062 213.324219 13.425781 C 212.753906 12.566406 212.140625 11.734375 211.484375 10.9375 C 210.828125 10.136719 210.136719 9.371094 209.40625 8.640625 C 208.675781 7.910156 207.910156 7.21875 207.109375 6.5625 C 206.308594 5.910156 205.476562 5.296875 204.617188 4.726562 C 203.753906 4.15625 202.867188 3.628906 201.953125 3.148438 C 201.039062 2.667969 200.101562 2.230469 199.144531 1.84375 C 198.1875 1.457031 197.210938 1.117188 196.21875 0.824219 C 195.226562 0.535156 194.222656 0.292969 193.207031 0.101562 C 192.191406 -0.0859375 191.171875 -0.226562 190.140625 -0.3125 C 189.109375 -0.402344 188.078125 -0.4375 187.046875 -0.421875 Z M 187.046875 -0.421875 " fill-opacity="1" fill-rule="nonzero"/></svg>