<svg xmlns="http://www.w3.org/2000/svg" xmlns:xlink="http://www.w3.org/1999/xlink" width="500" zoomAndPan="magnify" viewBox="0 0 375 374.999991" height="500" preserveAspectRatio="xMidYMid meet" version="1.0"><defs><clipPath id="e41a9ab674"><path d="M 0 0 L 375 0 L 375 374.964844 L 0 374.964844 Z M 0 0 " clip-rule="nonzero"/></clipPath></defs><path fill="#737373" d="M 108.09375 201.542969 L 164.324219 257.765625 C 171.351562 264.800781 183.648438 259.527344 183.648438 248.988281 L 183.648438 220.347656 C 183.648438 212.875 189.707031 206.8125 197.179688 206.8125 L 248.664062 206.8125 C 259.203125 206.8125 267.988281 198.027344 267.988281 187.484375 C 267.988281 176.945312 259.203125 168.160156 248.664062 168.160156 L 197.179688 168.160156 C 189.707031 168.160156 183.648438 162.097656 183.648438 154.625 L 183.648438 125.984375 C 183.648438 115.445312 171.351562 110.171875 164.324219 117.199219 L 108.09375 173.429688 C 101.066406 183.96875 101.066406 194.515625 108.09375 201.542969 " fill-opacity="1" fill-rule="nonzero"/><g clip-path="url(#e41a9ab674)"><path fill="#737373" d="M 187.519531 38.660156 C 268.695312 38.660156 336.339844 104.375 336.339844 187.484375 C 336.339844 268.664062 270.625 336.3125 187.519531 336.3125 C 106.339844 336.3125 38.691406 270.597656 38.691406 187.484375 C 38.691406 106.308594 104.40625 38.660156 187.519531 38.660156 Z M 187.519531 374.964844 C 291.890625 374.964844 375.003906 291.859375 375.003906 187.484375 C 375.003906 83.113281 291.890625 0 187.519531 0 C 83.144531 0 0.03125 83.113281 0.03125 187.484375 C -1.902344 291.859375 83.144531 374.964844 187.519531 374.964844 " fill-opacity="1" fill-rule="nonzero"/></g></svg>