<svg xmlns="http://www.w3.org/2000/svg" xmlns:xlink="http://www.w3.org/1999/xlink" width="500" zoomAndPan="magnify" viewBox="0 0 375 374.999991" height="500" preserveAspectRatio="xMidYMid meet" version="1.0"><defs><clipPath id="ab7c8532b7"><path d="M 15.9375 0 L 281 0 L 281 203 L 15.9375 203 Z M 15.9375 0 " clip-rule="nonzero"/></clipPath><clipPath id="ff8406b20c"><path d="M 94 171 L 359.4375 171 L 359.4375 375 L 94 375 Z M 94 171 " clip-rule="nonzero"/></clipPath></defs><g clip-path="url(#ab7c8532b7)"><path fill="#737373" d="M 201.832031 156.699219 C 245.023438 156.699219 280.136719 121.585938 280.136719 78.394531 C 280.136719 35.203125 245.023438 0.0898438 201.832031 0.0898438 L 94.242188 0.0898438 C 51.050781 0.0898438 15.9375 35.203125 15.9375 78.394531 C 15.9375 111.253906 36.210938 140.152344 66.355469 151.570312 L 66.355469 191.34375 C 66.355469 195.929688 69.074219 200.125 73.265625 201.988281 C 74.820312 202.6875 76.375 202.996094 78.007812 202.996094 C 80.878906 202.996094 83.675781 201.988281 85.851562 199.96875 L 133.703125 156.621094 L 201.832031 156.621094 Z M 205.5625 63.945312 C 214.027344 63.945312 220.941406 70.78125 220.941406 79.328125 C 220.941406 87.871094 214.105469 94.707031 205.5625 94.707031 C 197.09375 94.707031 190.179688 87.871094 190.179688 79.328125 C 190.179688 70.78125 197.09375 63.945312 205.5625 63.945312 Z M 91.757812 94.628906 C 83.289062 94.628906 76.375 87.792969 76.375 79.25 C 76.375 70.703125 83.210938 63.867188 91.757812 63.867188 C 100.300781 63.867188 107.136719 70.703125 107.136719 79.25 C 107.136719 87.792969 100.300781 94.628906 91.757812 94.628906 Z M 148.699219 63.945312 C 157.164062 63.945312 164.078125 70.78125 164.078125 79.328125 C 164.078125 87.871094 157.242188 94.707031 148.699219 94.707031 C 140.152344 94.707031 133.316406 87.871094 133.316406 79.328125 C 133.316406 70.78125 140.230469 63.945312 148.699219 63.945312 Z M 148.699219 63.945312 " fill-opacity="1" fill-rule="nonzero"/></g><g clip-path="url(#ff8406b20c)"><path fill="#737373" d="M 280.679688 171.925781 L 173.089844 171.925781 C 129.898438 171.925781 94.785156 207.039062 94.785156 250.230469 C 94.785156 293.421875 129.898438 328.53125 173.089844 328.53125 L 241.296875 328.53125 L 289.148438 371.878906 C 291.324219 373.820312 294.121094 374.910156 296.992188 374.910156 C 298.625 374.910156 300.179688 374.597656 301.734375 373.898438 C 305.925781 372.035156 308.644531 367.839844 308.644531 363.257812 L 308.644531 323.484375 C 338.710938 312.0625 359.0625 283.167969 359.0625 250.304688 C 358.984375 207.039062 323.792969 171.925781 280.679688 171.925781 Z M 169.359375 266.464844 C 160.894531 266.464844 153.980469 259.628906 153.980469 251.082031 C 153.980469 242.617188 160.816406 235.703125 169.359375 235.703125 C 177.90625 235.703125 184.742188 242.539062 184.742188 251.082031 C 184.664062 259.550781 177.828125 266.464844 169.359375 266.464844 Z M 226.226562 266.464844 C 217.757812 266.464844 210.84375 259.628906 210.84375 251.082031 C 210.84375 242.617188 217.679688 235.703125 226.226562 235.703125 C 234.769531 235.703125 241.605469 242.539062 241.605469 251.082031 C 241.527344 259.550781 234.691406 266.464844 226.226562 266.464844 Z M 283.089844 266.464844 C 274.621094 266.464844 267.707031 259.628906 267.707031 251.082031 C 267.707031 242.617188 274.542969 235.703125 283.089844 235.703125 C 291.632812 235.703125 298.46875 242.539062 298.46875 251.082031 C 298.46875 259.550781 291.554688 266.464844 283.089844 266.464844 Z M 283.089844 266.464844 " fill-opacity="1" fill-rule="nonzero"/></g></svg>