<svg xmlns="http://www.w3.org/2000/svg" xmlns:xlink="http://www.w3.org/1999/xlink" width="500" zoomAndPan="magnify" viewBox="0 0 375 374.999991" height="500" preserveAspectRatio="xMidYMid meet" version="1.0"><defs><clipPath id="88b255e65d"><path d="M 0.792969 103.609375 L 240.933594 103.609375 L 240.933594 271.40625 L 0.792969 271.40625 Z M 0.792969 103.609375 " clip-rule="nonzero"/></clipPath></defs><path fill="#737373" d="M 371.953125 167.578125 L 360.105469 162.265625 C 358.871094 154.710938 352.296875 148.925781 344.398438 148.925781 L 341.304688 148.925781 C 336.027344 144.480469 329.480469 142.066406 322.46875 142.066406 C 313.777344 142.066406 305.539062 145.949219 301.480469 151.957031 C 298.445312 156.449219 297.910156 161.746094 299.972656 166.878906 C 300.597656 168.429688 301.3125 169.753906 302.089844 170.878906 C 301.796875 171.351562 301.519531 171.835938 301.265625 172.328125 C 298.378906 177.933594 298.808594 184.070312 302.441406 189.160156 C 304.929688 192.644531 307.660156 194.460938 310.152344 195.355469 L 256.710938 195.355469 C 257.121094 194.304688 257.351562 193.175781 257.351562 191.980469 C 257.351562 186.832031 253.160156 182.636719 248.003906 182.636719 C 242.851562 182.636719 238.65625 186.832031 238.65625 191.980469 C 238.65625 196.097656 241.332031 199.589844 245.035156 200.835938 C 242.070312 206.25 238.976562 216.523438 245.921875 230.636719 L 237.660156 241.859375 C 237.035156 242.710938 236.785156 243.785156 236.980469 244.824219 L 240.738281 265.214844 C 241.074219 267.03125 242.65625 268.34375 244.503906 268.34375 L 248.332031 268.34375 C 249.46875 268.34375 250.546875 267.84375 251.269531 266.96875 C 252 266.097656 252.304688 264.953125 252.097656 263.835938 L 249.710938 250.722656 L 271.542969 234.84375 C 287.980469 240.269531 308.882812 246.070312 323.175781 246.085938 L 326.167969 265.113281 C 326.460938 266.972656 328.066406 268.34375 329.949219 268.34375 L 333.335938 268.34375 C 335.445312 268.34375 337.160156 266.632812 337.160156 264.519531 L 337.160156 241.394531 C 353.339844 223.445312 346.808594 194.015625 346.808594 194.015625 C 356.0625 193.402344 362.199219 189.960938 365.816406 187.027344 C 371.152344 182.699219 374.207031 176.882812 374.207031 171.070312 C 374.210938 169.5625 373.328125 168.195312 371.953125 167.578125 Z M 371.953125 167.578125 " fill-opacity="1" fill-rule="nonzero"/><g clip-path="url(#88b255e65d)"><path fill="#737373" d="M 236.875 183.414062 L 228.671875 162.375 C 232.511719 156.449219 232.992188 148.914062 230.03125 142.570312 L 238.261719 133.355469 C 240.085938 131.3125 240.527344 128.378906 239.382812 125.890625 C 238.242188 123.402344 235.746094 121.839844 232.992188 121.878906 L 228.011719 121.972656 L 232.746094 114.027344 C 234.273438 111.457031 233.976562 108.199219 232.003906 105.953125 C 230.035156 103.710938 226.839844 102.988281 224.097656 104.175781 L 141.851562 139.675781 C 141.851562 139.675781 59.550781 144.335938 59.492188 144.335938 C 40.546875 145.476562 22.601562 135.335938 13.78125 118.511719 C 12.019531 115.140625 7.855469 113.839844 4.484375 115.605469 C 1.117188 117.371094 -0.1875 121.535156 1.582031 124.90625 C 9.566406 140.144531 23.378906 151.105469 39.363281 155.742188 C 34.230469 162.976562 24.972656 181.457031 38.238281 208.679688 L 24.847656 226.863281 C 23.71875 228.394531 23.273438 230.324219 23.621094 232.195312 L 29.816406 265.765625 C 30.417969 269.03125 33.265625 271.40625 36.585938 271.40625 L 42.894531 271.40625 C 44.9375 271.40625 46.871094 270.5 48.183594 268.933594 C 49.492188 267.363281 50.039062 265.296875 49.671875 263.285156 L 45.957031 242.886719 L 86.292969 212.613281 C 86.398438 212.539062 86.496094 212.460938 86.59375 212.378906 C 89.832031 209.65625 92.382812 206.71875 94.371094 203.683594 C 109.515625 207.097656 128.160156 211.097656 143.511719 213.753906 L 151.660156 265.585938 C 152.1875 268.941406 155.078125 271.40625 158.46875 271.40625 L 163.65625 271.40625 C 167.460938 271.40625 170.542969 268.324219 170.542969 264.519531 L 170.542969 211.445312 C 183.542969 196.246094 181.535156 175.234375 181.535156 175.234375 L 184.058594 173.507812 C 191.132812 186.445312 204.316406 194.410156 219.640625 194.410156 L 219.644531 194.410156 C 223.902344 194.410156 228.203125 193.777344 232.417969 192.519531 C 234.261719 191.96875 235.796875 190.671875 236.644531 188.941406 C 237.492188 187.214844 237.574219 185.210938 236.875 183.414062 Z M 236.875 183.414062 " fill-opacity="1" fill-rule="nonzero"/></g></svg>