<svg xmlns="http://www.w3.org/2000/svg" xmlns:xlink="http://www.w3.org/1999/xlink" width="500" zoomAndPan="magnify" viewBox="0 0 375 374.999991" height="500" preserveAspectRatio="xMidYMid meet" version="1.0"><defs><clipPath id="9f14bc6777"><path d="M 0 73.59375 L 375 73.59375 L 375 301.59375 L 0 301.59375 Z M 0 73.59375 " clip-rule="nonzero"/></clipPath></defs><g clip-path="url(#9f14bc6777)"><path fill="#737373" d="M 187.484375 136.546875 C 118.578125 136.546875 62.714844 125.363281 62.714844 111.570312 C 62.714844 97.777344 118.578125 86.597656 187.484375 86.597656 C 256.394531 86.597656 312.253906 97.777344 312.253906 111.570312 C 312.253906 125.363281 256.394531 136.546875 187.484375 136.546875 Z M 249.390625 218.753906 C 247.316406 222.402344 243.148438 225.664062 238.804688 225.449219 C 232.15625 225.125 230.222656 218.695312 230.757812 213.003906 C 231.195312 208.347656 233.15625 203.714844 236.742188 200.617188 C 240.722656 197.183594 246.117188 196.125 249.851562 200.527344 C 254.097656 205.527344 252.71875 212.898438 249.390625 218.753906 Z M 208.796875 172.300781 C 211.914062 166.207031 218.257812 162.058594 224.617188 166.167969 C 231.65625 170.714844 233.515625 181.429688 231.382812 189.472656 C 230.054688 194.472656 225.96875 199.710938 220.460938 200.875 C 214.722656 202.09375 209.226562 199.09375 207.460938 193.746094 C 205.175781 186.800781 205.421875 178.890625 208.796875 172.300781 Z M 235.523438 253.753906 C 231.496094 259.488281 224.199219 262.523438 217.289062 261.871094 C 213.523438 261.515625 210.011719 259.917969 206.308594 259.238281 C 202.5625 258.546875 198.714844 258.367188 194.996094 259.328125 C 189.835938 260.671875 184.65625 262.875 179.214844 261.953125 C 174.078125 261.078125 169.140625 258.324219 166.023438 254.109375 C 160.855469 247.128906 162.644531 239.933594 167.75 233.574219 C 171.414062 229.011719 175.699219 225 179.429688 220.5 C 182.847656 216.371094 185.125 210.863281 189.375 207.515625 C 195.171875 202.945312 203.753906 203 210.039062 206.523438 C 215.074219 209.34375 217.179688 214.054688 220.253906 218.664062 C 224.042969 224.339844 229.722656 227.5625 233.835938 232.925781 C 238.332031 238.792969 240 247.378906 235.523438 253.753906 Z M 176.589844 166.148438 C 182.96875 162.082031 189.21875 166.28125 192.304688 172.382812 C 195.644531 178.972656 195.847656 186.875 193.527344 193.796875 C 191.738281 199.125 186.226562 202.089844 180.488281 200.84375 C 174.988281 199.652344 170.929688 194.40625 169.628906 189.40625 C 167.539062 181.367188 169.527344 170.652344 176.589844 166.148438 Z M 151.996094 218.753906 C 148.667969 212.898438 147.289062 205.527344 151.535156 200.527344 C 155.269531 196.125 160.664062 197.183594 164.644531 200.617188 C 168.230469 203.714844 170.191406 208.347656 170.628906 213.003906 C 171.164062 218.695312 169.230469 225.125 162.582031 225.449219 C 158.238281 225.664062 154.070312 222.402344 151.996094 218.753906 Z M 374.488281 257.699219 C 369.289062 195.851562 357.730469 113.585938 337.195312 96.011719 C 323.09375 83.230469 261.425781 73.609375 187.484375 73.609375 C 113.542969 73.609375 51.878906 83.230469 37.773438 96.011719 C 17.238281 113.585938 5.6875 195.851562 0.480469 257.699219 C 0.441406 257.945312 0.417969 258.183594 0.417969 258.425781 C 0.417969 273.875 84.171875 301.382812 187.484375 301.382812 C 290.800781 301.382812 374.550781 273.875 374.550781 258.425781 C 374.550781 258.183594 374.527344 257.945312 374.488281 257.699219 " fill-opacity="1" fill-rule="nonzero"/></g></svg>