<svg xmlns="http://www.w3.org/2000/svg" xmlns:xlink="http://www.w3.org/1999/xlink" width="600" zoomAndPan="magnify" viewBox="0 0 450 119.999999" height="160" preserveAspectRatio="xMidYMid meet" version="1.0"><defs><g/><clipPath id="86cbdcbcb0"><path d="M 19.351562 19 L 110 19 L 110 105.265625 L 19.351562 105.265625 Z M 19.351562 19 " clip-rule="nonzero"/></clipPath></defs><g clip-path="url(#86cbdcbcb0)"><path fill="#004aad" d="M 108.386719 23.738281 C 105.59375 23.824219 102.804688 23.910156 100.011719 23.992188 C 93.035156 14.847656 78.578125 21.261719 78.242188 31.53125 C 76.964844 33.738281 75.464844 35.679688 75.453125 39.34375 C 73.871094 43.25 72.289062 47.160156 70.707031 51.066406 C 58.039062 64.722656 43.496094 75.898438 41.824219 95.574219 C 31.105469 100.023438 24.488281 94.628906 19.359375 85.667969 C 20.789062 96.371094 28.527344 105.148438 39.53125 100.453125 C 42.503906 99.183594 41.988281 103.457031 47.964844 104.363281 C 58.753906 104.226562 69.546875 104.085938 80.335938 103.945312 C 83.363281 97.632812 71.183594 98.636719 67.914062 98.5 C 72.519531 95.246094 77.125 91.988281 81.726562 88.734375 C 84.050781 93.847656 86.382812 98.964844 88.703125 104.078125 C 91.585938 104.308594 94.46875 104.546875 97.355469 104.777344 C 97.652344 99.542969 96.246094 100.3125 91.492188 100.3125 C 90.511719 96.589844 89.539062 92.875 88.558594 89.152344 C 90.632812 98.335938 93.425781 98.789062 97.347656 104.675781 L 103.242188 105.023438 C 103.539062 103.304688 103.964844 100.214844 100.691406 97.941406 C 99.480469 97.710938 98.273438 97.480469 97.066406 97.242188 C 94.167969 90.429688 92.574219 82.9375 93.582031 74.082031 C 101.964844 56.003906 96.886719 50.289062 94.933594 46.871094 C 90.710938 39.460938 102.6875 36.523438 107.894531 33.335938 C 109.273438 32.496094 110.667969 23.671875 108.386719 23.738281 Z M 91.945312 22.449219 C 94.222656 34.765625 94.429688 43.71875 81.046875 29.953125 C 79.996094 28.867188 82.003906 27.460938 82.773438 28.410156 C 92.566406 40.488281 91.710938 30.605469 90.816406 22.59375 C 90.65625 21.140625 91.746094 21.335938 91.945312 22.449219 Z M 91.945312 22.449219 " fill-opacity="1" fill-rule="evenodd"/></g><g fill="#4d9ba4" fill-opacity="1"><g transform="translate(112.993302, 83.289238)"><g><path d="M 18.71875 4.09375 C 20.65625 4.71875 22.640625 5.03125 24.671875 5.03125 C 26.960938 5.03125 29.097656 4.675781 31.078125 3.96875 C 33.054688 3.257812 34.863281 2.285156 36.5 1.046875 C 38.132812 -0.179688 39.566406 -1.609375 40.796875 -3.234375 C 41.679688 -4.378906 42.453125 -5.613281 43.109375 -6.9375 C 42.535156 -5.707031 41.875 -4.5 41.125 -3.3125 C 40.070312 -1.632812 38.757812 -0.15625 37.1875 1.125 C 35.625 2.40625 33.828125 3.429688 31.796875 4.203125 C 29.773438 4.972656 27.484375 5.359375 24.921875 5.359375 L 24.0625 5.359375 C 20.40625 5.359375 17.234375 4.539062 14.546875 2.90625 C 11.859375 1.28125 9.628906 -0.796875 7.859375 -3.328125 C 6.097656 -5.867188 4.785156 -8.703125 3.921875 -11.828125 C 3.066406 -14.960938 2.640625 -18.050781 2.640625 -21.09375 C 2.640625 -22.375 2.707031 -23.726562 2.84375 -25.15625 C 2.976562 -26.59375 3.265625 -28.035156 3.703125 -29.484375 C 4.140625 -30.941406 4.765625 -32.363281 5.578125 -33.75 C 6.398438 -35.144531 7.515625 -36.414062 8.921875 -37.5625 C 10.066406 -38.488281 11.3125 -39.269531 12.65625 -39.90625 C 14.007812 -40.539062 15.34375 -40.90625 16.65625 -41 C 16.53125 -40.90625 16.46875 -40.816406 16.46875 -40.734375 C 16.46875 -40.554688 16.566406 -40.367188 16.765625 -40.171875 C 16.960938 -39.972656 17.0625 -39.765625 17.0625 -39.546875 L 17.0625 -39.40625 C 17.0625 -39.226562 16.960938 -39.09375 16.765625 -39 C 16.566406 -38.914062 16.242188 -38.796875 15.796875 -38.640625 C 15.359375 -38.492188 14.785156 -38.265625 14.078125 -37.953125 C 13.378906 -37.648438 12.546875 -37.1875 11.578125 -36.5625 C 11.835938 -36.300781 11.96875 -36.101562 11.96875 -35.96875 C 12.800781 -36.414062 13.570312 -36.722656 14.28125 -36.890625 C 14.988281 -37.066406 15.648438 -37.15625 16.265625 -37.15625 C 17.546875 -37.15625 18.472656 -36.9375 19.046875 -36.5 C 19.617188 -36.0625 19.90625 -35.734375 19.90625 -35.515625 C 19.90625 -35.160156 19.628906 -34.867188 19.078125 -34.640625 C 18.523438 -34.421875 17.882812 -34.144531 17.15625 -33.8125 C 16.425781 -33.488281 15.664062 -33.050781 14.875 -32.5 C 14.082031 -31.945312 13.46875 -31.144531 13.03125 -30.09375 C 12.320312 -29.03125 11.78125 -27.703125 11.40625 -26.109375 C 11.03125 -24.523438 10.84375 -22.921875 10.84375 -21.296875 C 10.84375 -18.515625 11.171875 -15.976562 11.828125 -13.6875 C 12.492188 -11.394531 13.429688 -9.410156 14.640625 -7.734375 C 15.859375 -6.054688 17.335938 -4.753906 19.078125 -3.828125 C 20.816406 -2.910156 22.789062 -2.453125 25 -2.453125 C 27.113281 -2.453125 29.019531 -2.976562 30.71875 -4.03125 C 32.414062 -5.09375 33.859375 -6.535156 35.046875 -8.359375 C 36.234375 -10.191406 37.132812 -12.304688 37.75 -14.703125 C 38.375 -17.109375 38.6875 -19.679688 38.6875 -22.421875 C 38.6875 -23.742188 38.609375 -25.050781 38.453125 -26.34375 C 38.296875 -27.644531 37.984375 -28.890625 37.515625 -30.078125 C 37.054688 -31.273438 36.421875 -32.398438 35.609375 -33.453125 C 34.796875 -34.515625 33.726562 -35.488281 32.40625 -36.375 C 30.726562 -37.25 29.359375 -37.875 28.296875 -38.25 C 27.242188 -38.625 26.71875 -38.988281 26.71875 -39.34375 C 26.71875 -39.476562 26.804688 -39.632812 26.984375 -39.8125 C 29.179688 -39.320312 31.164062 -38.523438 32.9375 -37.421875 C 34.5625 -36.410156 35.925781 -35.085938 37.03125 -33.453125 C 35.84375 -35.265625 34.5 -36.65625 33 -37.625 C 31.363281 -38.726562 29.421875 -39.585938 27.171875 -40.203125 C 27.398438 -40.421875 27.515625 -40.617188 27.515625 -40.796875 C 27.515625 -40.972656 27.191406 -41.125 26.546875 -41.25 C 25.910156 -41.382812 25.21875 -41.539062 24.46875 -41.71875 C 23.71875 -41.894531 23.019531 -42.113281 22.375 -42.375 C 21.738281 -42.644531 21.421875 -42.976562 21.421875 -43.375 C 21.421875 -43.863281 21.816406 -44.21875 22.609375 -44.4375 C 23.410156 -44.65625 24.382812 -44.921875 25.53125 -45.234375 C 25.832031 -45.234375 26.125 -45.1875 26.40625 -45.09375 C 26.695312 -45.007812 26.953125 -44.921875 27.171875 -44.828125 C 29.335938 -44.429688 31.398438 -43.726562 33.359375 -42.71875 C 35.316406 -41.707031 37.078125 -40.40625 38.640625 -38.8125 C 40.210938 -37.226562 41.523438 -35.34375 42.578125 -33.15625 C 43.640625 -30.976562 44.328125 -28.519531 44.640625 -25.78125 C 44.410156 -28.382812 43.820312 -30.753906 42.875 -32.890625 C 41.925781 -35.035156 40.691406 -36.941406 39.171875 -38.609375 C 37.648438 -40.285156 35.875 -41.695312 33.84375 -42.84375 C 31.820312 -43.988281 29.664062 -44.875 27.375 -45.5 C 29.40625 -45.5 31.421875 -45.085938 33.421875 -44.265625 C 35.429688 -43.453125 37.269531 -42.265625 38.9375 -40.703125 C 40.613281 -39.140625 42.066406 -37.207031 43.296875 -34.90625 C 44.535156 -32.613281 45.421875 -29.992188 45.953125 -27.046875 C 45.867188 -27.046875 45.738281 -27.007812 45.5625 -26.9375 C 45.382812 -26.875 45.25 -26.84375 45.15625 -26.84375 C 45.5625 -24.59375 45.765625 -22.410156 45.765625 -20.296875 C 45.765625 -17.210938 45.289062 -14.191406 44.34375 -11.234375 C 43.394531 -8.285156 42.023438 -5.65625 40.234375 -3.34375 C 38.453125 -1.03125 36.257812 0.84375 33.65625 2.28125 C 31.050781 3.71875 28.078125 4.4375 24.734375 4.4375 C 22.742188 4.4375 20.800781 4.148438 18.90625 3.578125 C 17.007812 3.003906 15.25 2.226562 13.625 1.25 C 13.707031 1.34375 13.75 1.429688 13.75 1.515625 C 13.75 1.609375 13.640625 1.65625 13.421875 1.65625 C 15.054688 2.707031 16.820312 3.519531 18.71875 4.09375 Z M 44.765625 -19.578125 C 44.546875 -17.859375 44.222656 -16.082031 43.796875 -14.25 C 43.378906 -12.414062 42.804688 -10.617188 42.078125 -8.859375 C 41.359375 -7.097656 40.445312 -5.445312 39.34375 -3.90625 C 38.238281 -2.40625 36.9375 -1.101562 35.4375 0 C 36.9375 -1.0625 38.257812 -2.316406 39.40625 -3.765625 C 40.550781 -5.265625 41.507812 -6.894531 42.28125 -8.65625 C 43.050781 -10.425781 43.644531 -12.289062 44.0625 -14.25 C 44.488281 -16.207031 44.742188 -18.160156 44.828125 -20.109375 C 44.785156 -19.972656 44.765625 -19.796875 44.765625 -19.578125 Z M 39.484375 -15.734375 C 39.128906 -14.054688 38.597656 -12.4375 37.890625 -10.875 C 37.179688 -9.3125 36.273438 -7.910156 35.171875 -6.671875 C 36.316406 -7.867188 37.242188 -9.238281 37.953125 -10.78125 C 38.660156 -12.320312 39.171875 -13.972656 39.484375 -15.734375 Z M 46.28125 -21.5625 C 46.28125 -20.8125 46.238281 -20.039062 46.15625 -19.25 C 46.113281 -18.5 46.046875 -17.722656 45.953125 -16.921875 C 45.953125 -17.671875 46 -18.507812 46.09375 -19.4375 C 46.175781 -20.40625 46.21875 -21.460938 46.21875 -22.609375 L 46.21875 -23.8125 C 46.257812 -23.457031 46.28125 -23.082031 46.28125 -22.6875 Z M 39.484375 -15.734375 C 39.703125 -16.703125 39.863281 -17.679688 39.96875 -18.671875 C 40.082031 -19.671875 40.140625 -20.675781 40.140625 -21.6875 C 40.140625 -22.789062 40.070312 -23.914062 39.9375 -25.0625 C 39.976562 -24.570312 40.007812 -24.109375 40.03125 -23.671875 C 40.0625 -23.234375 40.078125 -22.769531 40.078125 -22.28125 C 40.078125 -20.03125 39.878906 -17.847656 39.484375 -15.734375 Z M 45.953125 -16.53125 L 45.359375 -13.296875 C 45.140625 -12.492188 44.921875 -11.707031 44.703125 -10.9375 C 44.484375 -10.164062 44.21875 -9.40625 43.90625 -8.65625 C 44.394531 -10.03125 44.800781 -11.398438 45.125 -12.765625 C 45.457031 -14.128906 45.734375 -15.472656 45.953125 -16.796875 Z M 13.484375 1.78125 C 13.484375 1.738281 13.460938 1.695312 13.421875 1.65625 C 13.421875 1.695312 13.441406 1.738281 13.484375 1.78125 Z M 43.90625 -8.65625 C 43.820312 -8.476562 43.753906 -8.328125 43.703125 -8.203125 C 43.753906 -8.328125 43.820312 -8.476562 43.90625 -8.65625 Z M 43.171875 -7.078125 C 43.265625 -7.210938 43.332031 -7.34375 43.375 -7.46875 C 43.332031 -7.34375 43.265625 -7.210938 43.171875 -7.078125 Z M 37.421875 -32.9375 C 37.378906 -33.019531 37.316406 -33.101562 37.234375 -33.1875 C 37.273438 -33.101562 37.335938 -33.019531 37.421875 -32.9375 Z M 43.703125 -8.203125 C 43.617188 -7.984375 43.53125 -7.757812 43.4375 -7.53125 C 43.53125 -7.757812 43.617188 -7.984375 43.703125 -8.203125 Z M 43.703125 -8.203125 "/></g></g></g><g fill="#4d9ba4" fill-opacity="1"><g transform="translate(161.924017, 83.289238)"><g><path d="M 3.96875 -4.234375 C 3.96875 -4.453125 4.03125 -4.710938 4.15625 -5.015625 C 4.289062 -5.328125 4.359375 -5.660156 4.359375 -6.015625 C 4.492188 -7.078125 4.582031 -7.835938 4.625 -8.296875 C 4.664062 -8.765625 4.6875 -9.171875 4.6875 -9.515625 C 4.6875 -11.367188 4.628906 -13.363281 4.515625 -15.5 C 4.410156 -17.644531 4.296875 -19.707031 4.171875 -21.6875 C 4.171875 -22.300781 4.15625 -23.023438 4.125 -23.859375 C 4.101562 -24.703125 4.050781 -25.367188 3.96875 -25.859375 C 4.101562 -27.398438 4.210938 -28.921875 4.296875 -30.421875 C 4.390625 -31.921875 4.4375 -33.441406 4.4375 -34.984375 L 4.4375 -36.640625 C 4.4375 -37.210938 4.410156 -37.785156 4.359375 -38.359375 C 4.492188 -38.222656 4.628906 -38.15625 4.765625 -38.15625 C 4.941406 -38.15625 5.128906 -38.21875 5.328125 -38.34375 C 5.523438 -38.476562 5.710938 -38.546875 5.890625 -38.546875 C 6.191406 -38.546875 6.441406 -38.210938 6.640625 -37.546875 C 6.835938 -36.890625 6.9375 -35.4375 6.9375 -33.1875 L 7.53125 -33.1875 C 7.757812 -35.65625 8.101562 -37.617188 8.5625 -39.078125 C 9.019531 -40.535156 9.492188 -41.265625 9.984375 -41.265625 C 10.203125 -41.265625 10.550781 -40.789062 11.03125 -39.84375 C 11.519531 -38.894531 11.765625 -37.40625 11.765625 -35.375 L 12.5 -36.5625 C 12.976562 -37.132812 13.515625 -37.726562 14.109375 -38.34375 C 14.710938 -38.96875 15.390625 -39.519531 16.140625 -40 C 16.890625 -40.488281 17.722656 -40.894531 18.640625 -41.21875 C 19.566406 -41.550781 20.628906 -41.71875 21.828125 -41.71875 C 24.117188 -41.71875 26.109375 -41.195312 27.796875 -40.15625 C 29.492188 -39.125 30.914062 -37.78125 32.0625 -36.125 C 33.21875 -34.476562 34.15625 -32.609375 34.875 -30.515625 C 35.601562 -28.421875 36.164062 -26.304688 36.5625 -24.171875 C 36.957031 -22.035156 37.222656 -19.972656 37.359375 -17.984375 C 37.492188 -16.003906 37.5625 -14.304688 37.5625 -12.890625 C 37.5625 -11.617188 37.484375 -10.859375 37.328125 -10.609375 C 37.171875 -10.367188 36.894531 -10.226562 36.5 -10.1875 C 36.414062 -13.582031 36.195312 -17.039062 35.84375 -20.5625 C 35.488281 -24.09375 34.648438 -27.507812 33.328125 -30.8125 C 34.515625 -27.332031 35.273438 -23.90625 35.609375 -20.53125 C 35.941406 -17.15625 36.109375 -13.769531 36.109375 -10.375 C 35.835938 -10.507812 35.59375 -10.578125 35.375 -10.578125 C 35.195312 -10.578125 35.039062 -10.507812 34.90625 -10.375 C 34.90625 -10.03125 34.929688 -9.65625 34.984375 -9.25 C 35.023438 -8.90625 35.054688 -8.554688 35.078125 -8.203125 C 35.097656 -7.847656 35.109375 -7.515625 35.109375 -7.203125 C 34.847656 -6.191406 34.582031 -5.460938 34.3125 -5.015625 C 34.050781 -4.578125 33.8125 -4.359375 33.59375 -4.359375 C 33.320312 -4.359375 33.097656 -4.476562 32.921875 -4.71875 C 32.753906 -4.96875 32.59375 -5.269531 32.4375 -5.625 C 32.28125 -5.976562 32.125 -6.363281 31.96875 -6.78125 C 31.8125 -7.195312 31.601562 -7.601562 31.34375 -8 C 31.425781 -8.75 31.488281 -9.351562 31.53125 -9.8125 C 31.582031 -10.28125 31.609375 -10.671875 31.609375 -10.984375 C 31.609375 -12.171875 31.582031 -13.597656 31.53125 -15.265625 C 31.488281 -16.941406 31.367188 -18.695312 31.171875 -20.53125 C 30.972656 -22.363281 30.664062 -24.191406 30.25 -26.015625 C 29.832031 -27.847656 29.257812 -29.476562 28.53125 -30.90625 C 27.800781 -32.34375 26.882812 -33.515625 25.78125 -34.421875 C 24.6875 -35.328125 23.367188 -35.78125 21.828125 -35.78125 C 20.765625 -35.78125 19.820312 -35.425781 19 -34.71875 C 18.1875 -34.007812 17.484375 -33.101562 16.890625 -32 C 16.296875 -30.894531 15.78125 -29.691406 15.34375 -28.390625 C 14.90625 -27.097656 14.550781 -25.859375 14.28125 -24.671875 C 14.675781 -25.898438 15.082031 -27.148438 15.5 -28.421875 C 15.925781 -29.703125 16.4375 -30.875 17.03125 -31.9375 C 17.625 -33 18.316406 -33.867188 19.109375 -34.546875 C 19.898438 -35.234375 20.828125 -35.578125 21.890625 -35.578125 C 23.253906 -35.578125 24.429688 -35.203125 25.421875 -34.453125 C 26.410156 -33.703125 27.25 -32.726562 27.9375 -31.53125 C 28.625 -30.34375 29.175781 -28.988281 29.59375 -27.46875 C 30.007812 -25.945312 30.328125 -24.40625 30.546875 -22.84375 C 30.765625 -21.28125 30.90625 -19.757812 30.96875 -18.28125 C 31.039062 -16.800781 31.078125 -15.535156 31.078125 -14.484375 C 31.078125 -13.640625 31.066406 -12.800781 31.046875 -11.96875 C 31.023438 -11.132812 30.992188 -10.273438 30.953125 -9.390625 C 30.546875 -11.066406 30.242188 -12.816406 30.046875 -14.640625 C 29.847656 -16.472656 29.640625 -18.28125 29.421875 -20.0625 C 29.203125 -21.851562 28.925781 -23.570312 28.59375 -25.21875 C 28.269531 -26.875 27.796875 -28.410156 27.171875 -29.828125 L 27.640625 -30.484375 C 27.203125 -31.492188 26.707031 -32.273438 26.15625 -32.828125 C 25.601562 -33.378906 25.0625 -33.785156 24.53125 -34.046875 C 24 -34.316406 23.515625 -34.472656 23.078125 -34.515625 C 22.640625 -34.554688 22.351562 -34.578125 22.21875 -34.578125 C 21.113281 -34.578125 20.128906 -34.179688 19.265625 -33.390625 C 18.410156 -32.597656 17.660156 -31.53125 17.015625 -30.1875 C 16.378906 -28.84375 15.816406 -27.285156 15.328125 -25.515625 C 14.847656 -23.753906 14.429688 -21.90625 14.078125 -19.96875 C 13.734375 -18.03125 13.425781 -16.078125 13.15625 -14.109375 C 12.894531 -12.148438 12.675781 -10.3125 12.5 -8.59375 L 13.09375 -8.59375 C 13.3125 -10.09375 13.539062 -11.742188 13.78125 -13.546875 C 14.03125 -15.359375 14.296875 -17.203125 14.578125 -19.078125 C 14.867188 -20.953125 15.210938 -22.769531 15.609375 -24.53125 C 16.003906 -26.289062 16.476562 -27.875 17.03125 -29.28125 C 17.582031 -30.695312 18.234375 -31.847656 18.984375 -32.734375 C 19.679688 -33.566406 20.539062 -34.050781 21.5625 -34.1875 C 20.59375 -33.96875 19.773438 -33.347656 19.109375 -32.328125 C 18.398438 -31.273438 17.78125 -29.976562 17.25 -28.4375 C 16.726562 -26.894531 16.253906 -25.207031 15.828125 -23.375 C 15.410156 -21.539062 15.03125 -19.789062 14.6875 -18.125 L 13.359375 -8.46875 C 13.179688 -7.84375 13.046875 -7.289062 12.953125 -6.8125 L 12.703125 -5.421875 C 12.609375 -4.984375 12.515625 -4.507812 12.421875 -4 C 12.335938 -3.488281 12.226562 -2.90625 12.09375 -2.25 L 11.90625 -1.453125 L 11.5 -1.453125 L 4.828125 -3.703125 C 4.609375 -3.742188 4.441406 -3.804688 4.328125 -3.890625 C 4.222656 -3.984375 4.101562 -4.097656 3.96875 -4.234375 Z M 15.46875 -38.15625 C 14.59375 -37.40625 13.898438 -36.597656 13.390625 -35.734375 C 12.878906 -34.878906 12.40625 -34.007812 11.96875 -33.125 L 11.96875 -33.0625 C 12.582031 -34.34375 13.441406 -35.644531 14.546875 -36.96875 C 15.609375 -38.195312 17.019531 -39.117188 18.78125 -39.734375 C 18.207031 -39.566406 17.65625 -39.394531 17.125 -39.21875 C 16.507812 -38.988281 15.957031 -38.632812 15.46875 -38.15625 Z M 23.40625 -40.34375 C 23.1875 -40.382812 22.878906 -40.40625 22.484375 -40.40625 C 23.890625 -40.050781 25.207031 -39.660156 26.4375 -39.234375 C 27.675781 -38.816406 28.847656 -37.992188 29.953125 -36.765625 C 29.203125 -37.773438 28.21875 -38.566406 27 -39.140625 C 25.789062 -39.710938 24.59375 -40.113281 23.40625 -40.34375 Z M 25.1875 -32.796875 C 24.84375 -33.054688 24.4375 -33.265625 23.96875 -33.421875 C 23.507812 -33.578125 22.945312 -33.785156 22.28125 -34.046875 L 22.21875 -34.1875 C 22.96875 -34.144531 23.628906 -33.976562 24.203125 -33.6875 C 24.773438 -33.40625 25.328125 -32.910156 25.859375 -32.203125 Z M 30.09375 -36.640625 C 30.707031 -35.890625 31.273438 -35.023438 31.796875 -34.046875 C 32.328125 -33.078125 32.789062 -32.21875 33.1875 -31.46875 C 32.75 -32.488281 32.332031 -33.414062 31.9375 -34.25 C 31.539062 -35.09375 30.925781 -35.890625 30.09375 -36.640625 Z M 30.09375 -36.640625 "/></g></g></g><g fill="#4d9ba4" fill-opacity="1"><g transform="translate(202.787778, 83.289238)"><g><path d="M 20.828125 -5.625 C 20.566406 -5.625 20.300781 -5.488281 20.03125 -5.21875 C 19.101562 -4.863281 18.144531 -4.566406 17.15625 -4.328125 C 16.164062 -4.085938 15.140625 -3.96875 14.078125 -3.96875 C 11.085938 -3.96875 8.84375 -4.835938 7.34375 -6.578125 C 5.84375 -8.316406 5.09375 -10.84375 5.09375 -14.15625 C 5.09375 -15.738281 5.160156 -17.320312 5.296875 -18.90625 C 5.421875 -20.445312 5.503906 -21.878906 5.546875 -23.203125 C 5.421875 -21.835938 5.269531 -20.472656 5.09375 -19.109375 C 4.875 -17.648438 4.765625 -16.128906 4.765625 -14.546875 C 4.765625 -13.753906 4.835938 -12.738281 4.984375 -11.5 C 5.140625 -10.269531 5.523438 -9.070312 6.140625 -7.90625 C 6.765625 -6.738281 7.710938 -5.722656 8.984375 -4.859375 C 10.265625 -4.003906 12.03125 -3.578125 14.28125 -3.578125 C 15.34375 -3.578125 16.367188 -3.695312 17.359375 -3.9375 C 18.347656 -4.175781 19.304688 -4.472656 20.234375 -4.828125 C 19.617188 -4.078125 18.789062 -3.476562 17.75 -3.03125 C 16.71875 -2.59375 15.492188 -2.375 14.078125 -2.375 C 12.273438 -2.375 10.523438 -2.75 8.828125 -3.5 C 7.128906 -4.25 5.835938 -5.507812 4.953125 -7.28125 L 5.359375 -8 C 4.566406 -9.40625 4.125 -10.671875 4.03125 -11.796875 C 3.945312 -12.921875 3.859375 -14.035156 3.765625 -15.140625 L 4.890625 -26.71875 C 5.109375 -28.695312 5.265625 -30.679688 5.359375 -32.671875 L 5.15625 -32.796875 C 4.800781 -30.722656 4.515625 -28.738281 4.296875 -26.84375 C 4.078125 -24.988281 3.898438 -23.160156 3.765625 -21.359375 L 3.765625 -23.078125 C 4.035156 -25.109375 4.28125 -27.101562 4.5 -29.0625 C 4.71875 -31.019531 5.003906 -33.015625 5.359375 -35.046875 C 5.710938 -37.078125 6.160156 -39.191406 6.703125 -41.390625 C 7.253906 -43.597656 7.992188 -45.957031 8.921875 -48.46875 C 10.160156 -50.144531 10.890625 -51.796875 11.109375 -53.421875 C 11.242188 -53.421875 11.375 -53.398438 11.5 -53.359375 C 11.632812 -53.316406 11.898438 -53.296875 12.296875 -53.296875 C 12.566406 -53.296875 12.800781 -53.238281 13 -53.125 C 13.195312 -53.019531 13.296875 -52.789062 13.296875 -52.4375 C 13.296875 -52.039062 13.160156 -51.445312 12.890625 -50.65625 C 12.984375 -50.65625 13.117188 -50.617188 13.296875 -50.546875 C 13.472656 -50.484375 13.601562 -50.453125 13.6875 -50.453125 C 14.300781 -51.515625 14.863281 -52.414062 15.375 -53.15625 C 15.882812 -53.90625 16.378906 -54.28125 16.859375 -54.28125 C 17.171875 -54.28125 17.445312 -54.09375 17.6875 -53.71875 C 17.925781 -53.351562 18.046875 -52.75 18.046875 -51.90625 C 17.960938 -50.320312 17.707031 -48.820312 17.28125 -47.40625 C 16.863281 -46 16.410156 -44.632812 15.921875 -43.3125 C 15.441406 -41.988281 14.96875 -40.644531 14.5 -39.28125 C 14.039062 -37.914062 13.703125 -36.484375 13.484375 -34.984375 C 13.222656 -33.265625 12.957031 -31.507812 12.6875 -29.71875 C 12.425781 -27.9375 12.1875 -26.160156 11.96875 -24.390625 C 11.75 -22.628906 11.539062 -20.929688 11.34375 -19.296875 C 11.144531 -17.671875 11 -16.15625 10.90625 -14.75 C 10.90625 -13.46875 11.101562 -12.144531 11.5 -10.78125 C 11.726562 -10.425781 11.925781 -10.171875 12.09375 -10.015625 C 12.269531 -9.859375 12.582031 -9.78125 13.03125 -9.78125 C 13.550781 -9.78125 14.128906 -9.847656 14.765625 -9.984375 C 15.410156 -10.117188 15.976562 -10.1875 16.46875 -10.1875 C 16.769531 -10.1875 16.988281 -10.140625 17.125 -10.046875 C 17.257812 -9.960938 17.367188 -9.8125 17.453125 -9.59375 C 16.835938 -9.238281 16.175781 -8.972656 15.46875 -8.796875 C 14.769531 -8.617188 14.109375 -8.53125 13.484375 -8.53125 L 12.5625 -8.53125 C 12.382812 -8.53125 12.226562 -8.53125 12.09375 -8.53125 C 12.582031 -8.4375 13.203125 -8.390625 13.953125 -8.390625 C 15.097656 -8.390625 16.265625 -8.65625 17.453125 -9.1875 C 17.453125 -8.789062 17.585938 -8.460938 17.859375 -8.203125 C 17.984375 -8.242188 18.285156 -8.394531 18.765625 -8.65625 C 19.253906 -8.925781 19.675781 -9.0625 20.03125 -9.0625 C 21.09375 -9.0625 21.625 -8.617188 21.625 -7.734375 C 21.625 -7.597656 21.578125 -7.398438 21.484375 -7.140625 C 21.398438 -6.878906 21.179688 -6.375 20.828125 -5.625 Z M 3.3125 -14.484375 C 3.3125 -14.785156 3.320312 -15.179688 3.34375 -15.671875 C 3.363281 -16.160156 3.394531 -16.644531 3.4375 -17.125 L 3.578125 -18.640625 C 3.617188 -19.171875 3.660156 -19.632812 3.703125 -20.03125 C 3.660156 -19.375 3.628906 -18.546875 3.609375 -17.546875 C 3.585938 -16.554688 3.578125 -15.820312 3.578125 -15.34375 L 3.578125 -12.703125 C 3.578125 -12.347656 3.585938 -11.972656 3.609375 -11.578125 C 3.628906 -11.179688 3.660156 -10.804688 3.703125 -10.453125 C 3.523438 -11.148438 3.414062 -11.84375 3.375 -12.53125 C 3.332031 -13.21875 3.3125 -13.867188 3.3125 -14.484375 Z M 9.78125 -14.75 C 9.78125 -15.757812 9.847656 -16.75 9.984375 -17.71875 C 10.117188 -18.6875 10.226562 -19.679688 10.3125 -20.703125 C 10.09375 -19.679688 9.925781 -18.6875 9.8125 -17.71875 C 9.707031 -16.75 9.609375 -15.757812 9.515625 -14.75 L 9.515625 -13.8125 C 9.515625 -13.507812 9.539062 -13.179688 9.59375 -12.828125 L 9.59375 -13.296875 C 9.59375 -13.515625 9.613281 -13.753906 9.65625 -14.015625 C 9.695312 -14.285156 9.738281 -14.53125 9.78125 -14.75 Z M 3.703125 -20.109375 C 3.703125 -20.191406 3.703125 -20.253906 3.703125 -20.296875 C 3.742188 -20.335938 3.765625 -20.382812 3.765625 -20.4375 C 3.765625 -20.257812 3.742188 -20.148438 3.703125 -20.109375 Z M 3.703125 -20.109375 "/></g></g></g><g fill="#4d9ba4" fill-opacity="1"><g transform="translate(225.732314, 83.289238)"><g><path d="M 2.78125 17.78125 C 3.132812 18.132812 3.738281 18.410156 4.59375 18.609375 C 5.457031 18.804688 6.285156 18.90625 7.078125 18.90625 C 8.523438 18.90625 9.910156 18.429688 11.234375 17.484375 C 12.554688 16.535156 13.820312 15.242188 15.03125 13.609375 C 16.25 11.984375 17.410156 10.113281 18.515625 8 C 19.617188 5.882812 20.675781 3.660156 21.6875 1.328125 L 21.625 1.328125 C 20.738281 3.265625 19.789062 5.253906 18.78125 7.296875 C 17.769531 9.347656 16.664062 11.222656 15.46875 12.921875 C 14.28125 14.617188 12.988281 16.007812 11.59375 17.09375 C 10.207031 18.175781 8.722656 18.71875 7.140625 18.71875 C 5.859375 18.71875 4.601562 18.34375 3.375 17.59375 C 4.03125 17.375 4.644531 17.265625 5.21875 17.265625 C 5.394531 17.265625 5.707031 17.304688 6.15625 17.390625 C 6.851562 17.390625 7.441406 17.367188 7.921875 17.328125 C 8.410156 17.285156 8.875 17.1875 9.3125 17.03125 C 9.757812 16.875 10.179688 16.628906 10.578125 16.296875 C 10.972656 15.960938 11.414062 15.535156 11.90625 15.015625 L 12.703125 15.203125 C 13.972656 13.535156 15.171875 11.726562 16.296875 9.78125 C 17.421875 7.84375 18.535156 5.882812 19.640625 3.90625 L 20.828125 1.25 L 20.234375 1.125 L 19.25 3.5 C 18.226562 5.488281 17.164062 7.441406 16.0625 9.359375 C 14.96875 11.273438 13.710938 13.023438 12.296875 14.609375 C 13.835938 12.710938 15.25 10.597656 16.53125 8.265625 C 17.8125 5.929688 18.976562 3.503906 20.03125 0.984375 L 19.640625 0.328125 C 19.421875 -0.679688 19.085938 -1.671875 18.640625 -2.640625 C 18.335938 -3.390625 17.988281 -4.160156 17.59375 -4.953125 C 18.382812 -3.054688 18.9375 -1.226562 19.25 0.53125 C 18.800781 0.394531 18.429688 0.117188 18.140625 -0.296875 C 17.859375 -0.710938 17.597656 -1.207031 17.359375 -1.78125 C 17.117188 -2.351562 16.898438 -2.945312 16.703125 -3.5625 C 16.503906 -4.1875 16.25 -4.804688 15.9375 -5.421875 L 16.265625 -6.015625 C 15.554688 -7.117188 14.796875 -8.484375 13.984375 -10.109375 C 13.171875 -11.742188 12.3125 -13.421875 11.40625 -15.140625 C 10.5 -16.859375 9.582031 -18.53125 8.65625 -20.15625 C 7.738281 -21.789062 6.835938 -23.160156 5.953125 -24.265625 L 5.75 -24.0625 L 14.015625 -9.1875 C 12.335938 -12.007812 10.550781 -14.875 8.65625 -17.78125 C 6.757812 -20.695312 5.066406 -23.914062 3.578125 -27.4375 C 3.578125 -27.75 3.53125 -28.15625 3.4375 -28.65625 C 3.351562 -29.164062 3.253906 -29.695312 3.140625 -30.25 C 3.023438 -30.800781 2.898438 -31.351562 2.765625 -31.90625 C 2.640625 -32.457031 2.507812 -32.953125 2.375 -33.390625 L 4.09375 -33.921875 C 4.320312 -33.921875 4.519531 -33.820312 4.6875 -33.625 C 4.863281 -33.425781 5.019531 -33.019531 5.15625 -32.40625 C 5.375 -32.40625 5.570312 -32.578125 5.75 -32.921875 C 5.925781 -33.273438 6.113281 -33.671875 6.3125 -34.109375 C 6.507812 -34.554688 6.726562 -34.957031 6.96875 -35.3125 C 7.21875 -35.664062 7.539062 -35.84375 7.9375 -35.84375 C 8.507812 -35.84375 9.023438 -35.457031 9.484375 -34.6875 C 9.953125 -33.914062 10.394531 -32.976562 10.8125 -31.875 C 11.226562 -30.769531 11.675781 -29.609375 12.15625 -28.390625 C 12.644531 -27.179688 13.222656 -26.140625 13.890625 -25.265625 C 14.585938 -24.066406 15.300781 -22.894531 16.03125 -21.75 C 16.757812 -20.601562 17.429688 -19.394531 18.046875 -18.125 C 18.710938 -16.351562 19.570312 -14.570312 20.625 -12.78125 C 21.6875 -11 22.523438 -9.140625 23.140625 -7.203125 C 24.203125 -10.734375 25.050781 -13.875 25.6875 -16.625 C 26.320312 -19.382812 26.816406 -22.128906 27.171875 -24.859375 C 27.660156 -26.273438 28.082031 -27.863281 28.4375 -29.625 C 28.789062 -31.382812 28.96875 -33.101562 28.96875 -34.78125 L 30.421875 -34.71875 C 30.640625 -34.71875 30.835938 -34.617188 31.015625 -34.421875 C 31.191406 -34.222656 31.28125 -33.75 31.28125 -33 C 31.28125 -32.78125 31.269531 -32.546875 31.25 -32.296875 C 31.226562 -32.054688 31.191406 -31.757812 31.140625 -31.40625 L 31.734375 -31.40625 C 32.128906 -32.863281 32.59375 -34.03125 33.125 -34.90625 C 33.65625 -35.789062 34.164062 -36.234375 34.65625 -36.234375 C 35 -36.234375 35.335938 -35.859375 35.671875 -35.109375 C 36.003906 -34.359375 36.171875 -33.101562 36.171875 -31.34375 C 36.171875 -28.382812 35.816406 -25.1875 35.109375 -21.75 C 34.398438 -18.3125 33.675781 -14.921875 32.9375 -11.578125 C 31.695312 -7.078125 30.238281 -2.753906 28.5625 1.390625 C 26.882812 5.535156 24.769531 9.742188 22.21875 14.015625 C 21.425781 15.203125 20.53125 16.445312 19.53125 17.75 C 18.539062 19.050781 17.394531 20.226562 16.09375 21.28125 C 14.800781 22.34375 13.328125 23.210938 11.671875 23.890625 C 10.015625 24.578125 8.128906 24.921875 6.015625 24.921875 C 4.472656 24.921875 3.425781 24.722656 2.875 24.328125 C 2.320312 23.929688 2.046875 23.625 2.046875 23.40625 C 2.046875 23.269531 2.09375 23.117188 2.1875 22.953125 C 3.507812 23.390625 4.921875 23.609375 6.421875 23.609375 C 7.472656 23.609375 8.691406 23.421875 10.078125 23.046875 C 11.472656 22.671875 12.71875 22.109375 13.8125 21.359375 C 12.800781 21.890625 11.664062 22.351562 10.40625 22.75 C 9.15625 23.144531 8.023438 23.34375 7.015625 23.34375 C 5.421875 23.34375 3.875 23.144531 2.375 22.75 C 2.375 22.4375 2.253906 22.144531 2.015625 21.875 C 1.773438 21.613281 1.5 21.363281 1.1875 21.125 C 0.882812 20.882812 0.609375 20.628906 0.359375 20.359375 C 0.117188 20.097656 0 19.789062 0 19.4375 C 0 19.082031 0.109375 18.816406 0.328125 18.640625 C 0.546875 18.460938 0.796875 18.332031 1.078125 18.25 C 1.367188 18.164062 1.671875 18.085938 1.984375 18.015625 C 2.296875 17.953125 2.5625 17.875 2.78125 17.78125 Z M 25 6.078125 C 23.71875 8.367188 22.394531 10.671875 21.03125 12.984375 C 19.664062 15.304688 17.945312 17.503906 15.875 19.578125 C 17.988281 17.585938 19.738281 15.4375 21.125 13.125 C 22.507812 10.8125 23.800781 8.460938 25 6.078125 Z M 20.03125 -10.515625 L 22.21875 -5.09375 L 22.609375 -5.484375 Z M 23.546875 -6.015625 C 23.722656 -6.546875 23.875 -7.078125 24 -7.609375 L 24.40625 -9.1875 L 24 -9.390625 L 23.28125 -6.8125 C 23.363281 -6.457031 23.453125 -6.191406 23.546875 -6.015625 Z M 16.0625 -8.390625 C 15.582031 -9.535156 15.019531 -10.671875 14.375 -11.796875 C 13.738281 -12.921875 13.046875 -14.035156 12.296875 -15.140625 C 12.960938 -13.859375 13.644531 -12.582031 14.34375 -11.3125 C 15.050781 -10.113281 15.710938 -8.898438 16.328125 -7.671875 Z M 17.65625 -15.9375 C 17.695312 -15.269531 17.796875 -14.71875 17.953125 -14.28125 C 18.109375 -13.84375 18.285156 -13.457031 18.484375 -13.125 C 18.679688 -12.789062 18.878906 -12.476562 19.078125 -12.1875 C 19.273438 -11.90625 19.460938 -11.566406 19.640625 -11.171875 L 19.5 -11.375 Z M 22.75 -5.21875 L 22.28125 -4.6875 C 22.375 -4.5625 22.460938 -4.441406 22.546875 -4.328125 C 22.640625 -4.222656 22.707031 -4.082031 22.75 -3.90625 L 23.078125 -4.4375 Z M 22.75 -5.21875 "/></g></g></g><g fill="#004aad" fill-opacity="1"><g transform="translate(265.207697, 83.289238)"><g><path d="M 10.90625 2.453125 C 10.550781 2.222656 10.328125 1.710938 10.234375 0.921875 C 10.148438 0.128906 10.109375 -0.835938 10.109375 -1.984375 L 10.109375 -3.578125 L 9.515625 -3.578125 C 9.472656 -3.304688 9.375 -2.6875 9.21875 -1.71875 C 9.070312 -0.75 8.875 0.269531 8.625 1.34375 C 8.382812 2.425781 8.097656 3.382812 7.765625 4.21875 C 7.441406 5.0625 7.078125 5.484375 6.671875 5.484375 C 6.328125 5.484375 6.039062 5.019531 5.8125 4.09375 C 5.59375 3.175781 5.4375 2.109375 5.34375 0.890625 C 5.257812 -0.316406 5.207031 -1.523438 5.1875 -2.734375 C 5.164062 -3.953125 5.15625 -4.847656 5.15625 -5.421875 C 5.15625 -8.460938 5.195312 -11.46875 5.28125 -14.4375 C 5.375 -17.414062 5.421875 -20.40625 5.421875 -23.40625 C 5.421875 -26.40625 5.175781 -29.390625 4.6875 -32.359375 C 4.207031 -35.335938 3.96875 -38.285156 3.96875 -41.203125 C 4.582031 -41.992188 5.164062 -42.804688 5.71875 -43.640625 C 6.269531 -44.484375 6.8125 -45.34375 7.34375 -46.21875 C 8.925781 -46.613281 10.578125 -46.988281 12.296875 -47.34375 C 14.015625 -47.695312 15.710938 -47.875 17.390625 -47.875 C 22.015625 -47.875 25.96875 -47.15625 29.25 -45.71875 C 32.539062 -44.289062 35.222656 -42.265625 37.296875 -39.640625 C 39.367188 -37.015625 40.890625 -33.882812 41.859375 -30.25 C 42.828125 -26.613281 43.3125 -22.613281 43.3125 -18.25 C 43.3125 -11.195312 41.367188 -5.960938 37.484375 -2.546875 C 33.609375 0.867188 28.1875 2.578125 21.21875 2.578125 C 20.957031 2.578125 20.539062 2.539062 19.96875 2.46875 C 19.394531 2.40625 19 2.242188 18.78125 1.984375 C 20.007812 1.804688 21.425781 1.59375 23.03125 1.34375 C 24.644531 1.101562 26.265625 0.804688 27.890625 0.453125 C 29.523438 0.109375 31.082031 -0.335938 32.5625 -0.890625 C 34.039062 -1.441406 35.265625 -2.132812 36.234375 -2.96875 C 34.910156 -2.09375 33.554688 -1.398438 32.171875 -0.890625 C 30.785156 -0.378906 29.375 0.00390625 27.9375 0.265625 C 26.5 0.523438 25.03125 0.722656 23.53125 0.859375 C 22.039062 0.992188 20.546875 1.148438 19.046875 1.328125 L 19.25 0.59375 L 19.046875 0.0625 C 18.203125 0.195312 17.4375 0.328125 16.75 0.453125 C 16.070312 0.585938 15.359375 0.65625 14.609375 0.65625 C 13.859375 0.65625 13.132812 0.566406 12.4375 0.390625 L 12.359375 2.3125 Z M 15.609375 -3.171875 C 18.648438 -3.171875 21.476562 -3.257812 24.09375 -3.4375 C 26.71875 -3.613281 29 -4.1875 30.9375 -5.15625 C 32.882812 -6.125 34.421875 -7.609375 35.546875 -9.609375 C 36.671875 -11.617188 37.234375 -14.457031 37.234375 -18.125 C 37.234375 -19.925781 37.109375 -21.828125 36.859375 -23.828125 C 36.617188 -25.835938 36.175781 -27.800781 35.53125 -29.71875 C 34.894531 -31.632812 34.03125 -33.390625 32.9375 -34.984375 C 31.914062 -36.484375 30.632812 -37.71875 29.09375 -38.6875 C 30.59375 -37.664062 31.828125 -36.40625 32.796875 -34.90625 C 33.898438 -33.28125 34.75 -31.519531 35.34375 -29.625 C 35.9375 -27.726562 36.351562 -25.773438 36.59375 -23.765625 C 36.84375 -21.765625 36.96875 -19.859375 36.96875 -18.046875 C 36.96875 -15.628906 36.742188 -13.613281 36.296875 -12 C 35.859375 -10.394531 35.242188 -9.09375 34.453125 -8.09375 C 33.660156 -7.101562 32.675781 -6.34375 31.5 -5.8125 C 30.332031 -5.289062 29.03125 -4.90625 27.59375 -4.65625 C 26.164062 -4.414062 24.59375 -4.238281 22.875 -4.125 C 21.15625 -4.019531 19.328125 -3.898438 17.390625 -3.765625 C 18.929688 -4.429688 20.59375 -4.875 22.375 -5.09375 C 24.164062 -5.3125 25.882812 -5.597656 27.53125 -5.953125 C 29.1875 -6.304688 30.675781 -6.910156 32 -7.765625 C 33.320312 -8.628906 34.316406 -10.050781 34.984375 -12.03125 L 35.78125 -12.296875 C 35.945312 -13.179688 36.050781 -13.960938 36.09375 -14.640625 C 36.144531 -15.328125 36.171875 -16.113281 36.171875 -17 C 36.171875 -19.726562 35.945312 -22.46875 35.5 -25.21875 C 35.0625 -27.976562 34.25 -30.46875 33.0625 -32.6875 C 31.875 -34.914062 30.21875 -36.722656 28.09375 -38.109375 C 25.976562 -39.503906 23.269531 -40.203125 19.96875 -40.203125 C 18.738281 -40.203125 17.515625 -40.125 16.296875 -39.96875 C 15.085938 -39.8125 13.890625 -39.601562 12.703125 -39.34375 C 12.785156 -39.300781 12.828125 -39.234375 12.828125 -39.140625 C 12.828125 -39.015625 12.804688 -38.953125 12.765625 -38.953125 C 15.097656 -39.429688 17.34375 -39.671875 19.5 -39.671875 C 22.195312 -39.671875 24.535156 -39.195312 26.515625 -38.25 C 28.492188 -37.300781 30.132812 -36 31.4375 -34.34375 C 32.738281 -32.695312 33.707031 -30.769531 34.34375 -28.5625 C 34.988281 -26.363281 35.332031 -24.003906 35.375 -21.484375 C 35.019531 -24.046875 34.535156 -26.414062 33.921875 -28.59375 C 33.304688 -30.78125 32.398438 -32.664062 31.203125 -34.25 C 30.015625 -35.84375 28.472656 -37.085938 26.578125 -37.984375 C 24.679688 -38.890625 22.28125 -39.34375 19.375 -39.34375 C 18.269531 -39.34375 17.164062 -39.320312 16.0625 -39.28125 C 14.96875 -39.238281 13.890625 -39.039062 12.828125 -38.6875 C 13.046875 -35.945312 13.242188 -33.234375 13.421875 -30.546875 C 13.597656 -27.859375 13.6875 -25.148438 13.6875 -22.421875 C 13.6875 -18.804688 13.539062 -15.242188 13.25 -11.734375 C 12.96875 -8.234375 12.71875 -4.695312 12.5 -1.125 C 12.9375 -1.5625 13.441406 -1.921875 14.015625 -2.203125 C 14.585938 -2.492188 15.117188 -2.816406 15.609375 -3.171875 Z M 41.984375 -17.921875 C 41.984375 -20.078125 41.835938 -22.253906 41.546875 -24.453125 C 41.265625 -26.660156 40.816406 -28.800781 40.203125 -30.875 C 40.816406 -28.632812 41.242188 -26.390625 41.484375 -24.140625 C 41.734375 -21.890625 41.859375 -19.617188 41.859375 -17.328125 C 41.859375 -16.179688 41.789062 -15.007812 41.65625 -13.8125 C 41.613281 -13.6875 41.59375 -13.554688 41.59375 -13.421875 C 41.851562 -14.878906 41.984375 -16.378906 41.984375 -17.921875 Z M 35.578125 -17.65625 C 35.578125 -16.988281 35.53125 -16.347656 35.4375 -15.734375 C 35.488281 -16.003906 35.515625 -16.269531 35.515625 -16.53125 L 35.515625 -18.71875 C 35.515625 -18.664062 35.515625 -18.617188 35.515625 -18.578125 C 35.554688 -18.316406 35.578125 -18.007812 35.578125 -17.65625 Z M 35.515625 -18.71875 C 35.515625 -18.976562 35.488281 -19.21875 35.4375 -19.4375 C 35.488281 -19.175781 35.515625 -18.9375 35.515625 -18.71875 Z M 40.9375 -10.375 C 41.019531 -10.644531 41.082031 -10.910156 41.125 -11.171875 C 41.082031 -10.910156 41.019531 -10.644531 40.9375 -10.375 Z M 40.9375 -10.375 "/></g></g></g><g fill="#004aad" fill-opacity="1"><g transform="translate(311.162895, 83.289238)"><g><path d="M 17.328125 -39.8125 C 17.367188 -39.59375 17.609375 -39.484375 18.046875 -39.484375 L 18.1875 -39.484375 C 18.445312 -39.484375 18.625 -39.457031 18.71875 -39.40625 C 21.007812 -38.707031 23.289062 -37.679688 25.5625 -36.328125 C 27.832031 -34.984375 29.878906 -33.375 31.703125 -31.5 C 33.535156 -29.632812 35.015625 -27.507812 36.140625 -25.125 C 37.265625 -22.75 37.828125 -20.191406 37.828125 -17.453125 C 37.828125 -15.078125 37.363281 -12.785156 36.4375 -10.578125 C 35.507812 -8.378906 34.226562 -6.460938 32.59375 -4.828125 C 34.269531 -6.285156 35.601562 -8.101562 36.59375 -10.28125 C 37.59375 -12.46875 38.09375 -14.816406 38.09375 -17.328125 C 38.09375 -20.148438 37.492188 -22.78125 36.296875 -25.21875 C 35.109375 -27.664062 33.585938 -29.859375 31.734375 -31.796875 C 29.890625 -33.742188 27.832031 -35.410156 25.5625 -36.796875 C 23.289062 -38.179688 21.070312 -39.25 18.90625 -40 C 20.582031 -40 22.289062 -39.625 24.03125 -38.875 C 25.769531 -38.125 27.429688 -37.144531 29.015625 -35.9375 C 30.609375 -34.726562 32.078125 -33.335938 33.421875 -31.765625 C 34.765625 -30.203125 35.898438 -28.609375 36.828125 -26.984375 L 36.375 -26.3125 C 37.25 -24.988281 37.914062 -23.554688 38.375 -22.015625 C 38.84375 -20.472656 39.078125 -18.890625 39.078125 -17.265625 C 39.078125 -14.128906 38.40625 -11.378906 37.0625 -9.015625 C 35.71875 -6.660156 34.019531 -4.703125 31.96875 -3.140625 C 29.914062 -1.578125 27.664062 -0.398438 25.21875 0.390625 C 22.78125 1.191406 20.476562 1.59375 18.3125 1.59375 C 17.082031 1.59375 15.835938 1.457031 14.578125 1.1875 C 13.328125 0.925781 12.0625 0.488281 10.78125 -0.125 L 10.78125 0.265625 C 12.007812 0.972656 13.273438 1.457031 14.578125 1.71875 C 15.878906 1.976562 17.171875 2.109375 18.453125 2.109375 C 21.617188 2.109375 24.734375 1.414062 27.796875 0.03125 C 30.867188 -1.351562 33.460938 -3.300781 35.578125 -5.8125 C 33.546875 -3.21875 31.019531 -1.191406 28 0.265625 C 24.976562 1.722656 21.835938 2.453125 18.578125 2.453125 C 15.234375 2.453125 12.523438 1.800781 10.453125 0.5 C 8.378906 -0.800781 6.753906 -2.398438 5.578125 -4.296875 C 4.410156 -6.191406 3.628906 -8.195312 3.234375 -10.3125 C 2.835938 -12.425781 2.640625 -14.320312 2.640625 -16 C 2.640625 -18.25 2.9375 -20.453125 3.53125 -22.609375 C 4.132812 -24.773438 5.050781 -26.757812 6.28125 -28.5625 C 7.519531 -30.375 9.109375 -31.925781 11.046875 -33.21875 C 12.984375 -34.519531 15.316406 -35.4375 18.046875 -35.96875 L 16.140625 -36.4375 C 15.210938 -36.65625 14.550781 -36.914062 14.15625 -37.21875 C 13.757812 -37.53125 13.5625 -37.796875 13.5625 -38.015625 C 13.5625 -38.367188 13.945312 -38.753906 14.71875 -39.171875 C 15.488281 -39.597656 16.359375 -39.8125 17.328125 -39.8125 Z M 14.34375 -31.46875 C 15.539062 -31.914062 16.6875 -32.140625 17.78125 -32.140625 C 18.882812 -32.140625 19.734375 -31.972656 20.328125 -31.640625 C 20.921875 -31.304688 21.21875 -30.960938 21.21875 -30.609375 C 21.21875 -30.390625 20.960938 -30.144531 20.453125 -29.875 C 19.953125 -29.613281 19.316406 -29.253906 18.546875 -28.796875 C 17.773438 -28.335938 16.9375 -27.753906 16.03125 -27.046875 C 15.132812 -26.335938 14.296875 -25.441406 13.515625 -24.359375 C 12.742188 -23.285156 12.101562 -21.976562 11.59375 -20.4375 C 11.09375 -18.894531 10.84375 -17.085938 10.84375 -15.015625 C 10.84375 -11.972656 11.523438 -9.675781 12.890625 -8.125 C 14.253906 -6.582031 16.148438 -5.8125 18.578125 -5.8125 C 20.117188 -5.8125 21.691406 -6.078125 23.296875 -6.609375 C 24.910156 -7.140625 26.367188 -7.890625 27.671875 -8.859375 C 28.972656 -9.828125 30.03125 -11.015625 30.84375 -12.421875 C 31.664062 -13.835938 32.078125 -15.425781 32.078125 -17.1875 C 32.078125 -18.507812 31.84375 -19.832031 31.375 -21.15625 C 30.914062 -22.476562 30.273438 -23.742188 29.453125 -24.953125 C 28.640625 -26.171875 27.671875 -27.304688 26.546875 -28.359375 C 25.421875 -29.421875 24.195312 -30.328125 22.875 -31.078125 C 21.601562 -31.785156 20.554688 -32.328125 19.734375 -32.703125 C 18.921875 -33.078125 18.335938 -33.441406 17.984375 -33.796875 C 17.628906 -33.617188 17.132812 -33.40625 16.5 -33.15625 C 15.863281 -32.914062 15.015625 -32.554688 13.953125 -32.078125 Z M 18.78125 -34.578125 C 20.8125 -33.921875 22.75 -32.929688 24.59375 -31.609375 C 26.1875 -30.421875 27.644531 -29.117188 28.96875 -27.703125 C 27.6875 -29.203125 26.296875 -30.546875 24.796875 -31.734375 C 23.078125 -33.148438 21.160156 -34.253906 19.046875 -35.046875 Z M 31.609375 -12.03125 C 30.941406 -10.625 30.015625 -9.367188 28.828125 -8.265625 C 29.617188 -8.796875 30.289062 -9.4375 30.84375 -10.1875 C 31.394531 -10.9375 31.847656 -11.6875 32.203125 -12.4375 C 32.554688 -13.1875 32.820312 -13.867188 33 -14.484375 C 33.125 -15.054688 33.234375 -15.519531 33.328125 -15.875 C 32.835938 -14.726562 32.265625 -13.445312 31.609375 -12.03125 Z M 36.03125 -6.34375 C 35.988281 -6.257812 35.925781 -6.171875 35.84375 -6.078125 C 35.800781 -6.035156 35.753906 -6.015625 35.703125 -6.015625 C 35.660156 -6.015625 35.769531 -6.242188 36.03125 -6.703125 C 36.300781 -7.171875 36.625 -7.722656 37 -8.359375 C 37.375 -9.003906 37.738281 -9.675781 38.09375 -10.375 C 38.394531 -10.90625 38.613281 -11.367188 38.75 -11.765625 C 38.132812 -9.867188 37.226562 -8.0625 36.03125 -6.34375 Z M 39.734375 -17.0625 C 39.734375 -16.351562 39.691406 -15.65625 39.609375 -14.96875 C 39.523438 -14.289062 39.367188 -13.664062 39.140625 -13.09375 C 39.453125 -14.195312 39.609375 -15.429688 39.609375 -16.796875 C 39.609375 -17.804688 39.519531 -18.796875 39.34375 -19.765625 C 39.207031 -20.609375 39.03125 -21.425781 38.8125 -22.21875 C 39.03125 -21.425781 39.226562 -20.632812 39.40625 -19.84375 C 39.625 -18.957031 39.734375 -18.03125 39.734375 -17.0625 Z M 18.78125 -35.640625 L 18.1875 -35.90625 C 18.144531 -35.820312 18.078125 -35.734375 17.984375 -35.640625 C 17.898438 -35.554688 17.859375 -35.46875 17.859375 -35.375 C 17.859375 -35.289062 17.910156 -35.171875 18.015625 -35.015625 C 18.128906 -34.859375 18.226562 -34.738281 18.3125 -34.65625 Z M 29.359375 -27.25 C 29.222656 -27.425781 29.09375 -27.578125 28.96875 -27.703125 C 29.09375 -27.523438 29.222656 -27.375 29.359375 -27.25 Z M 38.75 -11.765625 C 38.789062 -11.859375 38.8125 -11.945312 38.8125 -12.03125 C 38.8125 -11.945312 38.789062 -11.859375 38.75 -11.765625 Z M 38.875 -12.171875 C 38.832031 -12.117188 38.8125 -12.070312 38.8125 -12.03125 C 38.8125 -12.070312 38.832031 -12.117188 38.875 -12.171875 Z M 38.875 -12.171875 "/></g></g></g><g fill="#004aad" fill-opacity="1"><g transform="translate(353.547476, 83.289238)"><g><path d="M 29.359375 -23.28125 L 29.359375 -23.40625 L 27.640625 -23.9375 L 28.765625 -25.859375 L 36.5 -23.46875 C 36.5 -22.019531 36.578125 -20.535156 36.734375 -19.015625 C 36.890625 -17.492188 37.066406 -15.9375 37.265625 -14.34375 C 37.460938 -12.757812 37.632812 -11.140625 37.78125 -9.484375 C 37.9375 -7.835938 38.015625 -6.175781 38.015625 -4.5 C 38.015625 -2.25 37.816406 0.0195312 37.421875 2.3125 C 37.023438 4.601562 36.375 6.785156 35.46875 8.859375 C 34.570312 10.929688 33.382812 12.847656 31.90625 14.609375 C 30.425781 16.378906 28.585938 17.835938 26.390625 18.984375 C 25.191406 19.773438 23.65625 20.507812 21.78125 21.1875 C 19.914062 21.875 18.078125 22.257812 16.265625 22.34375 L 15.46875 22.34375 C 13.707031 22.34375 12.226562 22.15625 11.03125 21.78125 C 9.84375 21.40625 8.894531 20.988281 8.1875 20.53125 C 7.488281 20.070312 6.992188 19.628906 6.703125 19.203125 C 6.421875 18.785156 6.28125 18.535156 6.28125 18.453125 C 6.28125 18.273438 6.367188 18.1875 6.546875 18.1875 C 7.910156 19.195312 9.382812 19.921875 10.96875 20.359375 C 12.5625 20.804688 14.148438 21.03125 15.734375 21.03125 C 18.421875 21.03125 20.910156 20.5 23.203125 19.4375 C 25.410156 18.382812 27.394531 17.0625 29.15625 15.46875 C 27.394531 17.007812 25.390625 18.289062 23.140625 19.3125 C 20.847656 20.320312 18.398438 20.828125 15.796875 20.828125 C 14.253906 20.828125 12.742188 20.601562 11.265625 20.15625 C 9.796875 19.71875 8.421875 18.992188 7.140625 17.984375 C 7.273438 17.984375 7.429688 17.945312 7.609375 17.875 C 7.785156 17.8125 7.875 17.691406 7.875 17.515625 L 7.34375 17.0625 C 7.03125 16.75 6.664062 16.347656 6.25 15.859375 C 5.832031 15.378906 5.457031 14.804688 5.125 14.140625 C 4.789062 13.484375 4.625 12.78125 4.625 12.03125 C 4.625 11.28125 4.910156 10.90625 5.484375 10.90625 C 5.929688 10.90625 6.441406 11.191406 7.015625 11.765625 C 7.585938 12.335938 8.269531 12.96875 9.0625 13.65625 C 9.851562 14.34375 10.8125 14.972656 11.9375 15.546875 C 13.0625 16.117188 14.394531 16.40625 15.9375 16.40625 C 18.144531 16.40625 20.128906 15.972656 21.890625 15.109375 C 23.648438 14.242188 25.191406 13.066406 26.515625 11.578125 C 25.234375 12.984375 23.742188 14.082031 22.046875 14.875 C 20.347656 15.664062 18.421875 16.0625 16.265625 16.0625 C 14.941406 16.0625 13.695312 15.84375 12.53125 15.40625 C 11.363281 14.96875 10.425781 14.375 9.71875 13.625 C 10.46875 13.84375 11.40625 14.082031 12.53125 14.34375 C 13.65625 14.613281 14.878906 14.75 16.203125 14.75 C 18.578125 14.75 20.679688 14.140625 22.515625 12.921875 C 24.347656 11.710938 25.925781 10.179688 27.25 8.328125 L 28.171875 8.46875 C 29.179688 6.695312 29.894531 4.804688 30.3125 2.796875 C 30.738281 0.796875 30.953125 -1.300781 30.953125 -3.5 C 30.953125 -5 30.882812 -6.519531 30.75 -8.0625 C 30.613281 -9.601562 30.4375 -11.171875 30.21875 -12.765625 L 29.890625 -12.296875 C 30.109375 -10.753906 30.269531 -9.242188 30.375 -7.765625 C 30.488281 -6.285156 30.546875 -4.84375 30.546875 -3.4375 C 30.546875 -1.675781 30.367188 0.0703125 30.015625 1.8125 C 29.660156 3.5625 29.113281 5.160156 28.375 6.609375 C 29.113281 5.066406 29.640625 3.425781 29.953125 1.6875 C 30.265625 -0.0507812 30.421875 -1.914062 30.421875 -3.90625 C 30.203125 -5.050781 30.09375 -6.195312 30.09375 -7.34375 C 30.09375 -8.488281 30.046875 -9.632812 29.953125 -10.78125 L 29.828125 -12.09375 C 29.515625 -11.65625 29.050781 -11.039062 28.4375 -10.25 C 27.820312 -9.457031 27.09375 -8.675781 26.25 -7.90625 C 25.414062 -7.132812 24.476562 -6.460938 23.4375 -5.890625 C 22.40625 -5.316406 21.316406 -5.03125 20.171875 -5.03125 L 18.515625 -4.828125 C 16.179688 -4.828125 14.085938 -5.421875 12.234375 -6.609375 C 10.378906 -7.796875 8.789062 -9.304688 7.46875 -11.140625 C 6.144531 -12.972656 5.128906 -14.976562 4.421875 -17.15625 C 3.722656 -19.34375 3.375 -21.445312 3.375 -23.46875 C 3.332031 -23.695312 3.3125 -23.875 3.3125 -24 L 3.3125 -24.59375 C 3.3125 -27.28125 3.796875 -29.601562 4.765625 -31.5625 C 5.734375 -33.53125 7.066406 -35.128906 8.765625 -36.359375 C 10.460938 -37.597656 12.457031 -38.515625 14.75 -39.109375 C 17.039062 -39.703125 19.507812 -40 22.15625 -40 C 25.238281 -40 28.367188 -39.582031 31.546875 -38.75 C 31.273438 -38.65625 31.140625 -38.5 31.140625 -38.28125 C 31.140625 -38.101562 31.171875 -37.9375 31.234375 -37.78125 C 31.304688 -37.632812 31.34375 -37.472656 31.34375 -37.296875 L 31.34375 -37.15625 C 31.207031 -36.9375 30.898438 -36.828125 30.421875 -36.828125 C 29.929688 -36.828125 29.222656 -36.894531 28.296875 -37.03125 C 27.367188 -37.164062 26.070312 -37.34375 24.40625 -37.5625 L 24.40625 -36.765625 C 25.894531 -36.585938 27.171875 -36.3125 28.234375 -35.9375 C 29.296875 -35.5625 30.15625 -35.148438 30.8125 -34.703125 C 31.476562 -34.265625 31.953125 -33.847656 32.234375 -33.453125 C 32.523438 -33.054688 32.671875 -32.726562 32.671875 -32.46875 C 32.671875 -32.289062 32.570312 -32.164062 32.375 -32.09375 C 32.175781 -32.03125 31.960938 -32 31.734375 -32 C 31.253906 -32 30.382812 -32.085938 29.125 -32.265625 C 27.875 -32.441406 26.300781 -32.53125 24.40625 -32.53125 C 22.59375 -32.53125 20.890625 -32.421875 19.296875 -32.203125 C 17.710938 -31.984375 16.335938 -31.5625 15.171875 -30.9375 C 14.003906 -30.320312 13.085938 -29.460938 12.421875 -28.359375 C 11.765625 -27.265625 11.4375 -25.832031 11.4375 -24.0625 C 11.4375 -22.613281 11.664062 -21.226562 12.125 -19.90625 C 12.59375 -18.582031 13.164062 -17.410156 13.84375 -16.390625 C 14.53125 -15.378906 15.289062 -14.578125 16.125 -13.984375 C 16.96875 -13.390625 17.785156 -13.09375 18.578125 -13.09375 C 19.109375 -13.09375 19.757812 -13.46875 20.53125 -14.21875 C 21.300781 -14.96875 22.113281 -15.890625 22.96875 -16.984375 C 23.832031 -18.085938 24.660156 -19.253906 25.453125 -20.484375 C 26.242188 -21.722656 26.929688 -22.832031 27.515625 -23.8125 Z M 26.984375 -9.984375 C 26.535156 -9.546875 26.046875 -9.070312 25.515625 -8.5625 C 24.992188 -8.050781 24.410156 -7.585938 23.765625 -7.171875 C 23.128906 -6.753906 22.414062 -6.378906 21.625 -6.046875 C 20.832031 -5.710938 19.972656 -5.503906 19.046875 -5.421875 L 19.5 -5.21875 C 20.820312 -5.394531 22.035156 -5.78125 23.140625 -6.375 C 24.242188 -6.976562 25.222656 -7.675781 26.078125 -8.46875 C 26.941406 -9.257812 27.703125 -10.070312 28.359375 -10.90625 C 29.023438 -11.75 29.601562 -12.476562 30.09375 -13.09375 L 29.953125 -13.890625 C 29.554688 -13.316406 29.082031 -12.675781 28.53125 -11.96875 C 27.976562 -11.257812 27.460938 -10.597656 26.984375 -9.984375 Z M 31.8125 -3.578125 C 31.8125 -1.628906 31.613281 0.265625 31.21875 2.109375 C 30.8125 3.878906 30.257812 5.535156 29.5625 7.078125 C 30.3125 5.484375 30.90625 3.738281 31.34375 1.84375 C 31.832031 -0.09375 32.078125 -2.070312 32.078125 -4.09375 C 32.078125 -5.113281 32.039062 -6.148438 31.96875 -7.203125 C 31.90625 -8.265625 31.828125 -9.320312 31.734375 -10.375 L 31.40625 -14.28125 L 31.078125 -13.890625 C 31.253906 -12.171875 31.421875 -10.453125 31.578125 -8.734375 C 31.734375 -7.015625 31.8125 -5.296875 31.8125 -3.578125 Z M 36.703125 -3.96875 C 36.703125 -6.300781 36.601562 -8.566406 36.40625 -10.765625 C 36.207031 -12.972656 35.972656 -15.160156 35.703125 -17.328125 C 35.878906 -15.296875 36.078125 -13.273438 36.296875 -11.265625 C 36.523438 -9.265625 36.640625 -7.207031 36.640625 -5.09375 C 36.640625 -3.632812 36.5625 -2.097656 36.40625 -0.484375 C 36.25 1.117188 35.972656 2.710938 35.578125 4.296875 C 35.179688 5.878906 34.628906 7.421875 33.921875 8.921875 C 33.265625 10.335938 32.425781 11.660156 31.40625 12.890625 C 33.164062 10.867188 34.421875 8.578125 35.171875 6.015625 C 35.972656 3.367188 36.484375 0.75 36.703125 -1.84375 Z M 36.703125 -3.96875 "/></g></g></g><g fill="#004aad" fill-opacity="1"><g transform="translate(394.874091, 83.289238)"><g><path d="M 8.796875 -10.640625 C 9.503906 -10.421875 10.351562 -10.023438 11.34375 -9.453125 C 12.332031 -8.878906 13.441406 -8.285156 14.671875 -7.671875 C 15.910156 -7.054688 17.269531 -6.503906 18.75 -6.015625 C 20.226562 -5.535156 21.800781 -5.296875 23.46875 -5.296875 L 24.203125 -5.296875 C 24.460938 -5.296875 24.769531 -5.335938 25.125 -5.421875 L 25.859375 -4.890625 C 27.578125 -5.421875 28.984375 -6.421875 30.078125 -7.890625 C 31.179688 -9.367188 31.734375 -11.367188 31.734375 -13.890625 C 31.734375 -15.691406 31.300781 -16.929688 30.4375 -17.609375 C 29.582031 -18.296875 28.007812 -18.640625 25.71875 -18.640625 C 24.3125 -18.640625 22.847656 -18.539062 21.328125 -18.34375 C 19.804688 -18.144531 18.207031 -18.046875 16.53125 -18.046875 C 15.78125 -18.046875 15.007812 -18.078125 14.21875 -18.140625 C 13.425781 -18.210938 12.609375 -18.359375 11.765625 -18.578125 L 11.765625 -18.1875 C 13.535156 -17.738281 15.28125 -17.515625 17 -17.515625 C 18.664062 -17.515625 20.257812 -17.613281 21.78125 -17.8125 C 23.300781 -18.019531 24.769531 -18.125 26.1875 -18.125 C 27.375 -18.125 28.304688 -18 28.984375 -17.75 C 29.671875 -17.507812 30.191406 -17.191406 30.546875 -16.796875 C 30.898438 -16.398438 31.128906 -15.925781 31.234375 -15.375 C 31.347656 -14.820312 31.40625 -14.21875 31.40625 -13.5625 C 31.40625 -11.488281 30.851562 -9.722656 29.75 -8.265625 C 28.695312 -6.898438 27.441406 -6.039062 25.984375 -5.6875 C 27.617188 -6.257812 28.898438 -7.25 29.828125 -8.65625 C 30.796875 -10.15625 31.28125 -11.832031 31.28125 -13.6875 C 31.28125 -15.007812 30.9375 -16.019531 30.25 -16.71875 C 29.570312 -17.425781 28.394531 -17.78125 26.71875 -17.78125 C 25.351562 -17.78125 23.804688 -17.691406 22.078125 -17.515625 C 20.359375 -17.347656 18.53125 -17.265625 16.59375 -17.265625 C 15.40625 -17.265625 14.023438 -17.414062 12.453125 -17.71875 C 10.890625 -18.03125 9.40625 -18.601562 8 -19.4375 C 6.59375 -20.28125 5.398438 -21.4375 4.421875 -22.90625 C 3.453125 -24.382812 2.96875 -26.316406 2.96875 -28.703125 C 2.96875 -30.597656 3.351562 -32.347656 4.125 -33.953125 C 4.90625 -35.566406 5.929688 -36.976562 7.203125 -38.1875 C 8.484375 -39.394531 9.945312 -40.351562 11.59375 -41.0625 C 13.25 -41.769531 14.960938 -42.144531 16.734375 -42.1875 C 18.410156 -42.1875 20.007812 -41.953125 21.53125 -41.484375 C 23.050781 -41.023438 24.492188 -40.429688 25.859375 -39.703125 C 27.222656 -38.972656 28.519531 -38.164062 29.75 -37.28125 C 30.988281 -36.40625 32.132812 -35.53125 33.1875 -34.65625 L 31.875 -33.328125 C 31.5625 -33.328125 31.097656 -33.515625 30.484375 -33.890625 C 29.867188 -34.265625 28.921875 -34.914062 27.640625 -35.84375 L 27.25 -35.25 C 28.832031 -33.96875 29.988281 -32.773438 30.71875 -31.671875 C 31.445312 -30.566406 31.8125 -29.707031 31.8125 -29.09375 C 31.71875 -28.738281 31.492188 -28.5625 31.140625 -28.5625 C 30.785156 -28.5625 30.078125 -28.847656 29.015625 -29.421875 C 27.960938 -29.992188 26.765625 -30.632812 25.421875 -31.34375 C 24.078125 -32.050781 22.65625 -32.691406 21.15625 -33.265625 C 19.65625 -33.835938 18.289062 -34.125 17.0625 -34.125 C 16.351562 -34.125 15.644531 -33.988281 14.9375 -33.71875 C 14.238281 -33.457031 13.601562 -33.09375 13.03125 -32.625 C 12.457031 -32.164062 11.984375 -31.601562 11.609375 -30.9375 C 11.234375 -30.28125 11.046875 -29.554688 11.046875 -28.765625 C 11.046875 -27.484375 11.640625 -26.625 12.828125 -26.1875 C 14.015625 -25.75 15.578125 -25.53125 17.515625 -25.53125 C 17.921875 -25.53125 18.351562 -25.539062 18.8125 -25.5625 C 19.269531 -25.582031 19.703125 -25.632812 20.109375 -25.71875 C 21.117188 -25.71875 21.785156 -25.75 22.109375 -25.8125 C 22.441406 -25.882812 22.765625 -25.921875 23.078125 -25.921875 C 24.972656 -25.921875 26.867188 -25.785156 28.765625 -25.515625 C 30.660156 -25.253906 32.359375 -24.679688 33.859375 -23.796875 C 35.359375 -22.921875 36.566406 -21.664062 37.484375 -20.03125 C 38.410156 -18.40625 38.875 -16.222656 38.875 -13.484375 C 38.875 -11.585938 38.554688 -9.703125 37.921875 -7.828125 C 37.285156 -5.960938 36.328125 -4.289062 35.046875 -2.8125 C 33.765625 -1.332031 32.175781 -0.144531 30.28125 0.75 C 28.382812 1.65625 26.160156 2.109375 23.609375 2.109375 C 22.066406 2.109375 20.25 1.8125 18.15625 1.21875 C 16.0625 0.625 14.078125 -0.078125 12.203125 -0.890625 C 10.328125 -1.703125 8.738281 -2.550781 7.4375 -3.4375 C 6.132812 -4.320312 5.484375 -5.070312 5.484375 -5.6875 C 5.484375 -5.863281 5.59375 -5.992188 5.8125 -6.078125 C 8.507812 -4.097656 11.242188 -2.46875 14.015625 -1.1875 C 16.753906 0 19.554688 0.660156 22.421875 0.796875 C 21.003906 0.703125 19.59375 0.457031 18.1875 0.0625 C 16.726562 -0.375 15.28125 -0.910156 13.84375 -1.546875 C 12.414062 -2.191406 11.050781 -2.921875 9.75 -3.734375 C 8.445312 -4.546875 7.203125 -5.375 6.015625 -6.21875 L 7.015625 -7.078125 C 6.878906 -7.117188 6.632812 -7.269531 6.28125 -7.53125 C 5.925781 -7.800781 5.582031 -8.132812 5.25 -8.53125 C 4.925781 -8.925781 4.628906 -9.34375 4.359375 -9.78125 C 4.097656 -10.226562 3.96875 -10.648438 3.96875 -11.046875 C 3.96875 -11.484375 4.054688 -11.765625 4.234375 -11.890625 C 4.410156 -12.023438 4.609375 -12.09375 4.828125 -12.09375 C 5.046875 -12.09375 5.507812 -11.9375 6.21875 -11.625 C 6.925781 -11.320312 7.785156 -10.992188 8.796875 -10.640625 Z M 23.40625 -3.90625 C 21.863281 -3.90625 20.15625 -4.222656 18.28125 -4.859375 C 16.40625 -5.492188 14.628906 -6.320312 12.953125 -7.34375 C 14.328125 -6.414062 15.847656 -5.585938 17.515625 -4.859375 C 19.191406 -4.128906 21.132812 -3.765625 23.34375 -3.765625 C 26.289062 -3.765625 28.632812 -4.664062 30.375 -6.46875 C 32.125 -8.28125 33 -10.707031 33 -13.75 L 33 -14.421875 C 32.78125 -15.828125 32.304688 -16.984375 31.578125 -17.890625 C 30.847656 -18.796875 29.734375 -19.289062 28.234375 -19.375 C 29.160156 -19.195312 29.921875 -18.910156 30.515625 -18.515625 C 31.109375 -18.117188 31.570312 -17.644531 31.90625 -17.09375 C 32.238281 -16.539062 32.46875 -15.929688 32.59375 -15.265625 C 32.726562 -14.609375 32.796875 -13.925781 32.796875 -13.21875 C 32.617188 -10.3125 31.691406 -8.03125 30.015625 -6.375 C 28.347656 -4.726562 26.144531 -3.90625 23.40625 -3.90625 Z M 31.8125 -1.328125 C 32.90625 -2.023438 33.78125 -2.878906 34.4375 -3.890625 C 35.101562 -4.910156 35.679688 -5.972656 36.171875 -7.078125 C 35.242188 -5.222656 33.972656 -3.585938 32.359375 -2.171875 C 30.753906 -0.765625 28.847656 0.113281 26.640625 0.46875 C 27.484375 0.332031 28.351562 0.144531 29.25 -0.09375 C 30.15625 -0.34375 31.007812 -0.753906 31.8125 -1.328125 Z M 38.09375 -13.75 C 38.09375 -14.238281 38.003906 -14.703125 37.828125 -15.140625 C 37.691406 -15.492188 37.582031 -15.867188 37.5 -16.265625 L 37.5625 -15.40625 C 37.601562 -15.050781 37.625 -14.566406 37.625 -13.953125 C 37.625 -12.765625 37.488281 -11.617188 37.21875 -10.515625 C 36.957031 -9.410156 36.628906 -8.332031 36.234375 -7.28125 C 36.628906 -8.25 37.015625 -9.269531 37.390625 -10.34375 C 37.765625 -11.425781 38 -12.5625 38.09375 -13.75 Z M 37.5 -16.46875 C 37.5 -16.425781 37.5 -16.359375 37.5 -16.265625 C 37.5 -16.359375 37.5 -16.425781 37.5 -16.46875 Z M 25.921875 -5.625 C 25.878906 -5.625 25.832031 -5.625 25.78125 -5.625 C 25.832031 -5.625 25.878906 -5.625 25.921875 -5.625 Z M 25.921875 -5.625 "/></g></g></g></svg>