<svg xmlns="http://www.w3.org/2000/svg" xmlns:xlink="http://www.w3.org/1999/xlink" width="500" zoomAndPan="magnify" viewBox="0 0 375 374.999991" height="500" preserveAspectRatio="xMidYMid meet" version="1.0"><path fill="#737373" d="M 362.246094 56.339844 C 368.78125 49.984375 372.011719 42.25 371.933594 33.140625 C 372.011719 24.03125 368.78125 16.210938 362.246094 9.6875 C 355.890625 3.320312 348.15625 0.0898438 339.046875 0 C 329.9375 0.0898438 322.121094 3.320312 315.59375 9.6875 L 186.09375 139.441406 L 56.339844 9.6875 C 49.984375 3.320312 42.25 0.0898438 33.140625 0 C 24.03125 0.0898438 16.210938 3.320312 9.6875 9.6875 C 3.320312 16.210938 0.0898438 24.03125 0 33.140625 C 0.0898438 42.25 3.320312 49.984375 9.6875 56.339844 L 139.441406 186.09375 L 9.6875 315.59375 C 3.320312 322.121094 0.0898438 329.9375 0 339.046875 C 0.0898438 348.15625 3.320312 355.890625 9.6875 362.246094 C 16.210938 368.78125 24.03125 372.011719 33.140625 371.933594 C 42.25 372.011719 49.984375 368.78125 56.339844 362.246094 L 186.09375 232.746094 L 315.59375 362.246094 C 322.121094 368.78125 329.9375 372.011719 339.046875 371.933594 C 348.15625 372.011719 355.890625 368.78125 362.246094 362.246094 C 368.78125 355.890625 372.011719 348.15625 371.933594 339.046875 C 372.011719 329.9375 368.78125 322.121094 362.246094 315.59375 L 232.746094 186.09375 Z M 362.246094 56.339844 " fill-opacity="1" fill-rule="nonzero"/></svg>